<mxfile host="app.diagrams.net" modified="2023-07-26T16:01:00.957Z" agent="Mozilla/5.0 (Windows NT 10.0; Win64; x64) AppleWebKit/537.36 (KHTML, like Gecko) Chrome/114.0.0.0 Safari/537.36" etag="x9hHcIYDn8DMaL9iFraM" version="21.6.5" type="device">
  <diagram name="Page-1" id="UFb7W3yRvzOiAQBQYsHN">
    <mxGraphModel dx="1434" dy="707" grid="1" gridSize="10" guides="1" tooltips="1" connect="1" arrows="1" fold="1" page="1" pageScale="1" pageWidth="827" pageHeight="1169" math="0" shadow="0">
      <root>
        <mxCell id="0" />
        <mxCell id="1" parent="0" />
        <mxCell id="Q4NVvnGR27nj_l2IsHml-1" value="" style="shape=image;verticalLabelPosition=bottom;labelBackgroundColor=default;verticalAlign=top;aspect=fixed;imageAspect=0;image=data:image/png,iVBORw0KGgoAAAANSUhEUgAAA3MAAAHTCAYAAACNykG9AAAAAXNSR0IArs4c6QAAAARnQU1BAACxjwv8YQUAAAAJcEhZcwAADsMAAA7DAcdvqGQAAK/fSURBVHhe7N0HfBznfSf832xD2cUu2qL33tirWMRe1CxREm3HcmQ5ts+xz87ZVhw5lvOeco7jc+zEPl/OJXbOjktkSz5bvVEUKYmkxA4WgCBI9A4sylZg67wzuwMCIAnsggAFgPx9pflwZ56Z2ed55tnZ549nZlZYtmKViKsUFeShtrZWmSMiIiIiIqL5RqX8S0RERERERAsIgzkiIiIiIqIFiMEcERERERHRAsRgjoiIiIiIaAFiMEdERERERLQAMZgjIiIiIiJagBjMERERERERLUAM5oiIiIiIiBYgBnNEREREREQLEIM5ousQxRhkb/5LfOYbP8ATj22AShSVFCIiIiKi+WFBBnOi1LEuK9biG0tVMLOTTTdD2k7ce1c6Ol/6V/zy+ZMICIKSQEREREQ0PwjLVqy6JhoqKshDbW2tMjd7RFHAg5u0KGhy45/bru0cr1iqw19lh5aLoh+/eMWLtwPXrifvZ+0yLf7c6Mf33vah+QPqaEeav7kiiinY/Pg/YFNGKE9+txUDTe9j///7I+oHA8FlYmwxNjz0YawsSUe0bxDtp5/DKy+dwOBV5RCFdGz6q2+gov67+OkrTdJ8ZOUUdXlY+/AjuKMyE1HS/rvOvoSXnzuCfv/8qadIiJV/ga895MHTf/9rtDKQIyIiIqJ5aF6NzJ2rdeOr+z346ns+9CjLrkcQRByt9uAL7/g/sEBOFmn+5lrzK/8d//vbT+KnP/k1LmjW46FHtsMkilKwp0PZA3+JDYmNePP//hN+9cxhiEs/hfs3pipbjjGs3os7TCfx5v5pBHJSkJ13z+ewOaUZ+37+j/jlr1+Ho/jj2LMlU1ljAXF74NNFQafMEhERERHNN+r0jMynlNdXJCbEo6+vT5kbExpZ0+HeKGDJIi3+S7kKK+MEXO4JwAYhmP6RrTrs9Afwvi20TWmVDt/OFPFitzwAKKA8T40Et7R9lbK9AaiXtrdLaX6/AKcXcKhU2JonoOFSAC3SPserkLb73hot9pRq8EAGcKxJ2nZcsCGqBWxfrMF/XaLGQ4VqVMYAl/oCcEr7j8RU20eSP1Ej4EPLNPj8Eg0eLFChQtpeLp9LyaOoE/DR1Vp8bpEGe4tVWJsooENKtygjY+HSp6ZH3rqt0Dc8i+OX7HDZetDUHoPFd1XCffgwOryFWPPgavQ998843GCFw3IZ7dql2F48gvdONF25lFDUVeHux3Zi+PX/g7dbpYMVMRMqd3wIulM/xJtnLXAOtKDdpkdG7BAuNlqCQaEYnYc7PvJf8dDej2DznWuQHWtB86UeeOS04Mji97HeZEfJA/8NH7pnO8rTXGipacWwUs9idBE2Pfpl7H14D5YXSg24+LP4aFU3jtT0htINVdjxyb/Cnoc+gq3bt6EqT4e+Cxdh9UVSf+PoS7Hijji07juOvnHti4iIiIhovrihkbn8VODiWS++fUIKcsxqfCJvervJSxVQf07a/pQfrhQNHs2NfPv6i77g6NiTtX5lyZjgvXRlGvxZvIjnT/jwj/L+UzX4bH5k+5+N7VdWabBLK+LpY15866QfzlQ1HhtXvuIiDXZoAvi3Q148ecSPs1o1Pl4Yefq0eb3wSYdZrZZn9IiKdmHEFbrkUuZ0uiBExSBamRdFFTJ27EWl/Q3sOzakLI2UHf39w0gpWY44IXT1rv3ss/jj/ovBQFEU1ci763PYktqG/b+QRwaPQbv2v+De1cbguqMySjPR/Kfv41e/PQRv+SPYvcYUXC7/sSBzxyexMaUV+//9X/D8qQQUl0wcO8ve+jGsiqrG8//63/HTH/8Kl6K3YvfmfCU1MnI+jRlp0FsHMd0aICIiIiL6oNxQlNDdEcBbAyKa+vx4rl1EXuL0Ri56R7fvDeBP0vYFCZFv7/OK6HWJ6PEoCyZQYVGygNoGH96V9t9iCeBpKeizQIjwaYQz216QApaT1V584X0/jsrb9wewv0cKXuPHyhenE+BziKi1BdBplfZ/2INvXBzbd7j06RA0ZlTuWg+z5RKalZHSEBNW/MX38Jd3FSrz4yRtxa4N0ah+8TX0ScHT4k/+Gz5/d46SODVBCKD+jWfRnvkxfP6JJ/DAPVtQkKhRUmWpKCyKR9Oh/8T5plZ0XXgZb58eRm7xxHz0n30VJxuk9NrncaTGi7Ts0fdPREGBGe1Hfo/Tjc1oPfEMqtujlLSQWL0e/sEWNHV0wdJ6Gm/+ny/jp681K6lTE8Vi7Pr6j/HkP/0IX9qThrN/eh6dHJUjIiIionnqhoI5l3dsZMfhBbRqQB1RsBRy9fY67fS2n4peKwYvhRxl6fLjx42BiJ9GONPtE8xq/M1mLX56lw7/frcOf50rBOtnVF2HH/Z0Db63SYsvLlZjd4qA6HFlD5ceicIHf4iv/88f4+v/+C3cn9eF/U+/iO4J+bfi9NP/A7/ad1mZDxFFPRbddw/M9c/j4KXrRsthiZZDePrb38CzB+vhz9qOvY8/ia35o6NnekTHeDEyroJdTid0MXETguURl115BbjdI9BoRwO2OMTESsfHZg3OCYIPNtvYurLm08fhqnwMX3j8r7H3w3uxtjID2ojrrxmHfvZN/Ox/fQfPHHJi8a5tSJqldklERERENNtmcP0eXU1UqfCR5WpoOv34ziEvnnrHi192TAwGhvv8+LsDXjzTJsIqrb9rpRZ/UzR2GMKlR6J133fwsx98Ez/99pfwnW/9EO+3XhuYBYZtcF1zH1kRiksCOP/u4Sv3+N0IwWdB4/vP4YWfPIXfn4rC2h3rph2QTiZctjx1v8G//dMPsf/EZdi1BVjz50/iz7dmKKlTEwQvnH2d6OtsRN2ZS3CmZ+PaR8MQEREREc0PNxTMxWrHNjNopQ60F/AHe9kBOKS4IVarPAZf6sDHaQCnd2JHfvLtFdLqN9r1d0oBil7a56iUbA2+XBTpZZYRbj9Z/qIEpEtlP9roR6NdRKtdqo+rVpQvxfS4AjjS5Mevqr34l8siCswCYpT9h0uPhNfegb7uTlgGXVeNKDrhHolFdOxY/ev1sdIGboQecyKtK8Rh1V/+HP/f934WnB6oDBM9jSMKpbjzU49hSdJoWbxob++G2pSAuOASJ0aGtYgeV8HyZZGeYXuEI58uKf9SXcRKeZbI99DFKq9HCSo1vIN1OP/O83jtt9/B0wctyCwph24a9Rek00Hn88CnzBIRERERzTc3FMylZqqwNVFAnlmNBzIFtAyNBSI1fVLwkafFnVJ6YboG96YDF3rHLquUpWWpg9vnp6iwJ0tAk7L9FSMiBkUVFmWpkBorIEWaYgX50fpScBgTmk+Vr9yT3i9RrwrOG1TyPgI4ZxFRWajBRjl/ySr8WakKen+kl0lGuP0k+ZOXd0vB4MYSNQriBFTlarHTrGwjkfO/YaUW31+jwSKTFPhJ66xKFuAcljaNIH3mWtBwOYCquz6KyvwcpJfvxl13ZKPzUm3waZLARez/4T/g337wzSvTgYZpBEEBCzzRK7Flzz0ozclCasE67N5QCkfLJfQHV+iW3n8Q+Rs+prz/Pdi0LAbN9Q3B1PAsaG+zI2vVXciOVSMqeyeW5I21LfmnFxZ94of40l/chcLsNCRlVKAiPx7DVgvGXTkbmagoaN3uWap3IiIiIqLZN62fJpCip+BPCwg9ARgLtfhwrgCPFKj9os4f/GkC2dCgCHucCveXqrHFLAV6DT78uk1UgoXQ9qoePxKkgOnhXBXc0utfXAz9tMEVgYAUFEkBY6kGe4rU2JGvQqDTj1qPFFxt1uKzJRpsM6sg6FRYXyCnC4ju8+PsiADLgAiXSY37itXYli7A3uXHv18SI/ppAjkYjWj7SfJ3wQM02wUslfJ0b4EKxWoRhwakoE76V/5pBnn/7VLgmpYpBcHS/nflqJAoBYC/qfGhUwoCw6WHF/ppgri2V3C+Y2IALRMEPywNTRAKNmDj9ruwqioNzrO/w/Ov1UlxqPz+PrgdVjhsY1P8ovuQ43wHxy+F7lObiiAMo6OhA4ay7Vi/bTfWLM+Xf/QOzz33Hmx+ef8ihpovw5ezAXfu2I0V5UkYPPorvPR2m9I+rs2/qXwHFmlrcPhcV3D7ga5BJK95ELvuvg9rSx1oaktEir86+NMEcvl62yxIXLYbm7bfjTWrFsNkO4pX/vQm+t2R1N84sSVYuS4b9rPH0T7u6Z9ERERERPOFsGzFqmuGXooK8lBbW6vMjQn9zpwW+U1u/EvbNDvHtOCJ+R/BX312s3LJ5Hjn8eLX/xXnIvotvJkTBQ0MCXHwWgeQ9eD3sQc/xz8/e217nQlRTMLiR76Eu5elQFPza3z7F+9G/BAcIiIiIqIPwg0FcwVSMPfPDOZuO6LGiORkw3WuzXXD2mVRRtduLlHUQJ+UKN+eCEGbglWPfAHpJ57EL98OXcg5m+T2rtEnISHKCcvgsLKUiIiIiGh+YDBHC4ooluG+//EVLNcLCPgc6K9/Dc//+jV0etkeiYiIiOj2Mq1gjoiIiIiIiOaHG3qaJREREREREc0tBnNEREREREQLEIM5IiIiIiKiBYjBHBERERER0QLEYI6IiIiIiGgBYjBHRERERES0ADGYIyIiIiIiWoAYzBERERERES1ADOaIiIiIiIgWIAZz1yGKJlStq4JJFJUlRERERERE8wuDuauYqnZi7/rs4Ovs9Xuxs8oUfE1ERERERDSfMJi7ivX8G3i23YjyzHIY25/FG+etSgoREREREdH8oU7PyHxKeX1FYkI8+vr6lLn5QxRzsH7vGphUqdi0aS0qKyuRpepAQ687lG6qwq777sRyaXlFRTwcNa0wrd+LSqEGbVZhbPuOy+h1S/Py+iui0dA2FrAF11kLvP/CaUSvXYHoy62wCoKSSkREREREND8swJE5I8qM7Xj22WfxzNEOGMsqkSOKoSBsRwY69z0bTHv2GFC2KB4t7Z3IyMoNbZqbBYMNyMiOD87GZ2cAtokjb4LQiiNvnJcCOCvOv3EErQzkiIiIiIhoHlqAwZwNdTUtoZct7eiEAUY5Nos3yq9QvvPD2Lt3Lz68JhNGowmw2mAzGIMPM8nNMqCzrlOO5qR5E+RYrrNtKLQvIiIiIiKiBeQWu2euE0efeSY0MidNfzjSCgy1SUszkB2fiyxDJ9pa5HkpuIvPlpZK84zliIiIiIhoAbp1grkhGxxSeCZfWjmeIFjRJg/GrSmDobMtePlkW6cBWZVGeViO98MREREREdGCdMsEc/K9bof31QFlO4KXWcrTw+tygmlDcjQXjN1Cw3DyvCHDwEssiYiIiIhowRKWrVh1zS9jFxXkoba2VpkjIiIiIiKi+eYWu2eOiIiIiIjo9sBgjoiIiIiIaAFiMEdERERERLQAMZgjIiIiIiJagBjMERERERERLUCqqHQ1rp6IiIiIiIhofuPIHBERERER0QLEYI6IiIiIiGgBYjBHRERERES0ADGYI7oFiWIMsjf/JT7zjR/gicc2QCWKSgoRERER3SoYzN0AUeoYlxVr8Y2lKphvwU7yrV6+20LaTtx7Vzo6X/pX/PL5kwgIgpJARERERLeK2yqYE0UBe+7U4fHs6wcoK5bq8B/3RQWnX96rwSbVZIGMCia9gDSjAL2y5IMkmtX46U4NKm4w0Aq//dyUL/L6nzui2oScRZuwefu92L51G1ZVZCF2HuYTyUkwOi/h3OlL6BkcVhYSERER0a0kGMxlx2RPmGQVFRUTptvBuVo3vrrfg6++50OPsux6BEHE0WoPvvCOH8234IjHXJUv0vqfK/IfAxJLVqHE0I8Lx9/G+9WXMZK8BIvzjMoa84jbA58uCjplloiIiIhuPcLae9eKcgBXW1urLLqWHMxNlf5BkTvTD27SorDbD2eGGstiRHR1B/Czah/apTQ5/SNbtci87MX320KjJaVVOjyu9eG/nA5c2b6g2wdnugbLg9v78dMzfnRKaaNEgxrf3izg9Ve8eDswMZipqNLiifzQgKZo9+HrB3zoHBfwiGoB26vUuCtVQJw039jpxy9q/Ogdt/+piDoBH12hwcZ4eVRMRHd/AP9xyoc6n1S+VA1+tkqFqKsCLHHQhy+/68OgtFzUCPjQEjW2mVWIDYhokN7//57zo09Oi2D7m16+CLafqv6nKl8wfYr6iyR9KqKoQ/4du2HufBXHW73BZbrUCpTF9uB8oyV4KaM8cpdXsRR5KXpoA8Pob69BTX0PPHKaGIui9dsR33sG3tRypMQE4Oy5gDPnW+FSyi+qE1G4eBlyk6LgG7qE1uF8FKIab9X0BtMjJWbvxRe/kIy3/uZHqB13/IiIiIjo1rEgL7PMTwUunvXi2yekzrBZjU/kTa8YeVIgUX9O2v6UH64UDR7NjXz7+ou+4OjRk7V+ZcmY4L1mZRr8WbyI50/48I/y/qUA6rNKcBSJ4iINdmgC+LdDXjx5xI+zWjU+Xqhsb/Hifxz04htn/Rhx+/HvBzz4hjT93UkfrFKy/P4rqzTYpRXx9DEvvnVSCnpT1XhstHxhtpfdzPLNxvZTlk8yZf1JwqVPzQun04u4pHREC6E/Fnh6anG2qT8UyImq4MhdsXEQF08cwtHz7VDnrERFZlRw3VEmcxwGa4/g6JkW+FOWoDwrJrhcLp+pcDkKDUO4ePIwznZEIVVq39MlimoYM9Kgtw5iSFlGRERERLeeSHux80p3RwBvDYho6vPjuXYReYnTG3noHd2+N4A/SdsXJES+vc8rotclosejLJhAhUXJAmobfHhX2n+LJYCnpaDIAiHipwnG6QT4HCJqbQF0WqXtD0sB18XQtoJfQLuU1iq9v8xiD6BNmm8bFoLBhCBNJ6u9+ML7fhyV378/gP09UvAaHypfuO1lN7d8M9s+XPlkU9WfLFz6VOTLT3sbzmPAtAQbNm5AVUkekmLGf4T0SEqKQX/TeXRbbbD3XUJDhwfJSQlKeoizqwFtg3L6RTT2+GE0ymOUslhp+1hYW2vQOWjFUGct2qwaJS08USzGrq//GE/+04/wpT1pOPun5yeMqhIRERHRrWVCMHf1fXLyNB+5vAHlFeDwAlo1oI4wWJJdvb1OO73tp6LXinCGrsALsnT58ePGQMRPE6zr8MOersH3NmnxxcVq7E4RED2NvCWY1fibzVr89C4d/v1uHf46VwjWz2yZaflmun248oWrv5nWr+Bqw+l33sTpxn6IxkIsXX8nihJGM6CFVuuH1zc2qunx+qDSRU0IVj0et/IK8Pp9UKvGby9ixB16YIkgBOAeGVs3vGYc+tk38bP/9R08c8iJxbu2IWmW2jURERERzT8Tgjn5vrirJ/pgDff58XcHvHimTYRVpcKulVr8TVFkA6iitP5Hlquh6fTjO4e8eOodL37Zcet05iMpX7j6m0n9jhKC98LV4fzxAzjdoUF+YTY0sxI0yaOryssbIAheOPs60dfZiLozl+BMz0aqkkZEREREtx6V1H0MvoiKmnhfz6jo6Ojgv/IlbvNFrHas823QyqMfgD+YvwAcHjk9NPIm34MUpwGc3okd7cm3V0ir32jX3OkToJf2OSolW4MvF0V+maVczx5XAEea/PhVtRf/cllEgVlAzFXbX3dvUQLSpbIfbfSj0S6i1S7VxyRvO1fli2h76eV19xZB+cLVX6T1ez2ikISCFUuRHjO6rwCGrHYI0mck9OnxwutVQ6sZGyrUaTUIeNwRjjx64fMK0jahCpIf2KOVh41vhE4Hnc8DnzJLRERERLcelSh1m/0BP3JycqBWT7weT57Pzs6Gz+cLBkbzRWqmClsTBeSZ1XggU0DL0FhHvaZP6pznaXGnlF6YrsG96cCF3rHLKmVpWerg9vkpKuzJEtCkbH/FiIhBUYVFWSqkxgpIkaZYQaopqQ7iYkLzqfIz36X3S9SrgvOG4G+NBXDOIqKyUIONcv6SVfizUhX0/sguI5T3v2GlFt9fo8EikxS4xAlYlSzAOSxlSVknSJqxagUsk/KfbRCQFa3sW8p3txQsbSxRo0DatipXi53mUNIEk2x/s8sX8faT1H+48oWrv4jrdzIBF/yaDJRUFMNsjIMhIRtl+cnwDPbDFVzBgX7LMJLyq5BmMiLOXIzCTB0slsFganjDGBpyIz6rGCbp+GiMBchIuKptRioqClq3O7JyEREREdGCpM4qyXrK7rcHH46RYEyA1Tr6XEMEAzyn04nW1lZlyVwTUJ6nhtATgLFQiw/nCvBIgdov6vywKSOMQ4Mi7HEq3F+qxhazFOg1+PDrNjH4aPjR7VU9fiRIAcXDuSq4pde/uBi4sn1QICAFDVLAWKrBniI1duSrEOj0o9YjBR+btfhsiSb4aHxBp8L6AjldQHSfH2dHBFgGRLhMatxXrMa2dAH2Lj/+/ZII5/j9T0IORtulwDItUwpSpe135aiQKAUwv6nxoVMKYq5wS2FDjAp3l6lxl1SODVEBvNgtSu8gotkuYKmUp3sLVChWizg0IAU90r9y+hWTbC9fdXuzyxfR9pPU/wUPpixfuPqLuH4nIQg+2AZs0JqLUFBUjNyMBAgDl3D2QhvcYugSyWEpsAsY81FUXIQcsx7OtmrUNluVkV8tEnMKEDVUj2576HhEmwuRqepFY68juL3LPgx9dgXKS8qQZ/ZiYCgGcYFuNPU5g+tHLLYEK9dlw372ONpdE/+YQURERES3huDvzCmvkaxOljqTLvT09CA1NTV4iWVLS4uSOvdGfycuv8mNf2kL3/kmWojknziIitXB7x6GqfwuLMEJHKixKKmREcUkLH7kS7h7WQo0Nb/Gt3/xbsQPmSEiIiKihWFCMKcSVEjVpsJmtSEuLg6NjY3w+6/9vbG5cuVHv6Vg7p8ZzNEtSA7kdLHRkH+QQFAZkLN0DUztb+JoS+gJl9Mhf140+iQkRDlhGZz+9kREREQ0v014jF9ADKDf24/ExES0tbXNq0CO6PaQiOI7tuPOTTuwft1yJLlqcaEtdEfedMm/i+d3WRjIEREREd2iJozMjcqOyebPEhAREREREc1j0/uBLSIiIiIiIpoXGMwREREREREtQAsimDMYDMorIiIiIiIiknFkjoiIiIiIaAFiMEdERERERLQAMZgjIiIiIiJagBjMERERERERLUAM5oiIiIiIiBYgBnNEREREREQLEIO5GyDmrMPDD69DjigqS4iIiIiIiD5YDOamQRRNqNr5MPZmAZ3KMiIiIiIiornAYG4aBMGK82/8Ac8ebleWEBERERERzQ11VknWU8rrK0xaE/r6+pS5uafT6eDxeJS5+cCEnEojbLVtsAqCsixEFHOwfu8amDouo9ctTJjvGYnHol33YdPySlRWViLeUYM2q4CcdQ9j59rQsop4B2rbrKF9maqw6747sVxanqVSIfXOpWP7HZdWUREPR03rNXkhIiIiIqJbF0fmPki5lShzHMOzzz4bnI60hoKv1iN/CM4/88xRdGaUocokhoLAHWVwHAutexQZ0n8hobQMdO4LpT17DChbFK+kEhERERHR7YDB3AfJaoMtYzV2VpmUBSHyA1X27t2LD394zZWADfFGGGx1qGkJzQ6dqxu7T09OgxHlOz8c2m5NJozGifskIiIiIqJbG4O5D5BgPY83/vAHHMWaYBC2LkcMXS65Gjj6zDN45pk3UGdTVg6rM7jN6CjfH460KsuJiIiIiOh2wGBu1llhsxlxZaAsN2tstE1hPf8G3rhghcEYD5ikdW02aStJfDYyjMFVgCEbHMYyVOaGZuMXlY3tR06T5nhpJRERERHR7YsPQLkhkz8ARRDc6PHG4441d4QeaCLY0Rmng7uxAT2p6/HhnWuDywuS+3HmwCVYrXaoi9Zg7YoqVCR70O+W1u1oQJ/bhlbH2H6SLU3oT44L7ieY1qFC0Zo1wQegXP3gFCIiIiIiuvUJa+9de80vX2fHZKO2tlaZm3sGgwEOh0OZuz0FL8fcYUTds4fRyqdWEhERERHd9niZ5QKRW1k2djkmERERERHd9jgyN0+JogmLdu1AuSk0CieKHTjGUTkiIiIiIlIwmCMiIiIiIlqAeJklERERERHRAsRgjoiIiIiIaAFiMEdERERERLQAMZgjIiIiIiJagBjMERERERERLUAM5oiIiIiIiBYgBnNEN1F0SjEq85OgFq/5BZCgcOlERERERJNhMDcPiaIauTu+gsce2QATO/nXEEUVMor/HA8vWYq4eVw/ohiN7MrFyIzxwH+dH3sPl05ERERENBUGc9Mk6vKw5mNP4kvf+hGe+Ptv4dGH7kCSemJAIZY/JqU9irwbDjS00CenItmciBhlyQdJNH8In91+H7LmIFAyl/5XfGHlEmVuMhrExiQhPi4e0cqS6fjAyhebjexEO9rabMqCq4RLJyIiIiKaAoO5aRBFAXn3fA6bU5qx7+f/iF/++nU4ij+OPVsylTVmhyCMoPbpJ/C9H7yAbo7YXEMQPLh89gf4+aGD6JvH9aPPzkaCtQ2tk8Rq4dKJiIiIiKYirL137TXDE9kx2aitrVXm5p7BYIDD4VDm5o4omrD+r76LotNfwa8OhfITt3gvdpjP4rk36+Cv+jS+9tgaRF0VYIgtf8QPfvgK7NLyvIe+i4dj3sFR/Xqsy42Bs+09vPHbp1FvC20jpz96R3zwtdj9En783edgUfYniinY/Pg/ILP2P+Guuh9FCT701zyHP/3uEPoDyjrRRdj0sU9gdaEJI82v4qRtK9bjV/je788F06cipj6Az61YDO3V+R/aj18ceheO2I346JalaHv3f+OIPbSOJn0vPlM5gpf2v4DWQBLW3PkFpPW8gpG0LSiICWCo+228cfY4BqRAWCaq07G06h4sS0tFjN+KzvZ9ePNCHZzKe8ojcx+JO4R/PXEmOH+1rMovY0+eMfhatL+D3779FgbH5VfUFWLDsrtQHh+PKIxgaOA4Dpw+iE6fELZ8o3kQtSp8cZMGi0b8+Oa7PrRftX4kRDEWZTvuQlb7a9hf51SWjrleurFiBzbqqvHS6UEUbX4ARQP78dpZGwo33YvE+udwolsqg8aE4uUrUZJhQpTfCUvzWZw424nhG8gjERERES1s6qySrKeU11eYtCb09fUpc3NPp9PB4/Eoc3PJC33RNixPHcK56mZ4IMDTU4sLTf0Q5c60tRn11YelTnc8Fud04uUf/hQHjhzEiepLsA57guvEV+zEkgoD+g/+Bq+/fRHqqg9hU64FJ850BO+bsreexpn3D+CUPQsr0wdw4kgdXFc66nrkrduKssQBVL/wexyq9SJ/yx4UDB/CuXZ3cOQw8+7HcX9+C974zW9xeqgEK9bmQt9/CkdqepV9TGGkA02d1ThnN0jBUC/eOvwHvN9yHOc6W+DweiF6bYhJ24wi1UWc63dK76dCQeG9yHG+i3e6pTpALLJyV6Mg1ooLta/jRM8w0gq2oVA8iwtDcv5UyK74FDYbLuLgqVdR3edAatHdKA6cwUVr6Pjqk1ejKqoVxzp7gvNXcw5dQG3rcdSMpGCR0YZzLU0YGRfIpBV/HFsMdXjtxIs42d4BXdpWLI5uwvl+KfgOV77R/USpsKtYBbMg4v3GAAbG7T9i+gIsq9Kh/WQd+r3X2f466Z6YNFQlu3GxFcjOT4VBbUVjm4isCjNG6hvR51EhZYnU/owdOHn0NOq73EgqW47sQAtaBn3BfRARERHR7YOXWU6DIARQ/8azaM/8GD7/xBN44J4tKEjUKKlSumcQfd2d6B10SXMuWLs6gvN9Aw4ExgUEqtbD2Hf8ErpbT2L/gXPQ5hUjVUnzOy0Y7O/FoHPy4LX/7Ks42dCKrtrnpSDNi7TsHCUlEQUFZrQf+T1ONzaj9cQzqG6PUtLCE/x2DDj60D88IgVmbjjsvcH5geHhYP4FwYr6zk4kpFUgQb7fTJWPfDPQ3N0woXxDne/i/EA3evsO4WiHHSnxo5ehmpFrjkZzw5totPWiz3Icx9qtyErKVdLD83utsLkGYPVcP3iJ1cXC5+xEm82CAVsdDr33XTxd3xVMC1e+UcKwH/+0z4uvHvTh0o0EcpK43GyYhtrRdu2gXND10gN2O4ZjY6FXGaD39GBAa5DC4zgYohywBdczIi1Ni+66c+gatMHa24CaFieSU6SDQERERES3HQZz0yRaDuHpb38Dzx6shz9rO/Y+/iS25uuU1Mj4hu1Xnl7obzqAl187iaHgXGRGXHblFeB2j0CjHQ3Y4hATK8JpswbnBMEHm21s3dlg7bqAXkMpivRS40koQY7qEhr6/EpqiNs7rLySXvvcUGt0UAUfNhIFrVqHkhXfwOd3PxmcPlqQDEGjVdJnrr3rHEbS7sejd34Cdy3ajqVSoKO5gX17PCIsvhsL5ETRgJwsEwZa28aNqo6ZNN3uhCtGD32cAYKzBzYYEKeXgjvpeIcu6tVAo9Yge91DePDBB4PT9jITVBr1rNUfERERES0cDOZugOCzoPH95/DCT57C709FYe2OdYi+wc60YL+Es8cvBu+nmw2ztJvJuc6hwWpGfnoSUlOLoe2rQ0tASYuIGw3n/w2/OxSanj70E/zn+boJI2Mz4e17BU+//Z840i4FSqosLF3+aewp/IBHrow5yDQOoL19kmG5ydK9UtAmSsFbggFw9MDpjkZcoh5RLgfGQnIvOk7tw759o9PreP1U+6zVHxEREREtHAzmpkEUSnHnpx7DkqRQ4CYIXqlD3g21KQFxwSUKKbCbm3ESF9wjAmJiY4Nz8j10scrr6Zk8/4JgR31nO8yp61BpjkVr16VrAoko7dgPKkRpouD3epR13PD6tVD5B0KXN0qTzSdg7ELVmRMEFXyuZtQ3HcDbZ36JFxuHkGrOh3ZCsH1zj48pJxPGgXa0yVfbXsfk6VIw54xBUooWI3YP5EFVU6oePulF6H4+H3x+tVR/Ttjt9uDkCtYfAzkiIiKi2xGDuekIWOCJXokte+5BaU4WUgvWYfeGUjhaLqFfWSVI6ny7YvJQUp4Pc1oGzKbIfg1NFDWITUxBQpI06XWAWg9jcqo0n4wYTSThhwXtbXZkrboL2bFqRGXvxJK8aQ2bhYy4MKLNQH5KBhINZiRGT7yM1CZfamlcjNLoZjT0XXtvX3zGBlQmpsFs3oA1mXHotXYoKX1o6XMgt3A3ShJSkJy4FFvu+DTuTLvq1/TUxtD7XpnigsGY/GPqMTGJMMYmwqSTQkBVNOL0SdK8CdEqOV2L0hVP4LHVG5BjTEJCXAGKE41wDw9JYdA4YconB8G7V2vxrZVqJE5zxFUUjcjJMsLS2jbhwSyjpkqXf5LC7tBK9SaFdVIg53D6kZwSB5dz9LcLbOjudiO1ZAlykoxS28jDik3bsTRTq6QTERER0e2ET7OcBkEYRkdDBwxl27F+226sWZ4PNL+C5557Dzb/uI65rQfOxFVYv/serNu4FYuNrTh8LvQQDvlpllWac9J8d3B+okLs/Ju/w57t27CqOBmCPh+LN27D6g0rob30Bi4PGoJPs4xrewXnO0JBmql8BxZpa4L7FwQRA12DSF7zIHbdfR/WljrQ1JaIFH91ZE+zHOXux3BMFVaU3InlBatRruvEiR6LkijxDiEmdT0ynYfwVlv3uJG5mODTLNFzCjGFe7AhJxO+vv3Yf7ERw5AfoCLCOtgCX/xKrC7ZiMVpqfB0v4p9l1uDTwaVyU+zXJRVicV5q65Mi7IM6L18AYPIxoZN/wU7i9dgsTkBgi4TZflrpIC1Atq+99AyEkD/0CASMtZjdfFGLM0uQZz7LA7WHMXg+OMTrnxaFR5arEZ0lx8vDyjLIpVYLO0XaDpxeeJ7jgqTLphyUZY6gstn22HTJqK0JB79Fy+g2yXXH+C0WOBPLkRFZTmKMo3wdlTj+AULvBydIyIiIrrt8HfmbkGioIEhIQ5e6wCyHvw+9uDn+OdnZ+94imIGNm39JEyX/hkvto8oS+XlicHfmUtp+hZeap/4UJSFRExW40drVXj9LQ9ekIKo6UhYtBtbEurx4tsN8F5nZC5cOhERERFRpHiZ5S1GvlRTn5AInaCFwbwIxTmx6O+9/m+23bD4SuRHt6Kxe+ypleMJC3yUKDNRBb01gCOTPL9kMqKYgOwsPfra2q4bqIVLJyIiIiKaDgZzt5wibP1v/4Av/u238PkvfQoFg3/CG0fGXUI4C9LSS2EYqEODV1lwCxFFEcXxAi53BGCZZsAlCIM4++r/w7tN16+YcOlERERERNPByyyJiIiIiIgWII7MERERERERLUAM5oiIiIiIiBYgBnNEREREREQLEIM5IiIiIiKiBYjBHBERERER0QLEYI6IiIiIiGgBYjBHRERERES0ADGYm4dEUY3cHV/BY49sgEm85mcAiYiIiIiIGMxNl6jLw5qPPYkvfetHeOLvv4VHH7oDSeqJAZdY/piU9ijybjgQ00KfnIpkcyJilCVERERERETjMZibBlEUkHfP57A5pRn7fv6P+OWvX4ej+OPYsyVTWWN2CMIIap9+At/7wQvoFgRlKRERERER0Rhh7b1rrxk+yo7JRm1trTI39wwGAxwOhzI3d0TRhPV/9V0Unf4KfnUolJ+4xXuxw3wWz71ZB3/Vp/G1x9Yg6qoATGz5I37ww1dgl5bnPfRdPBzzDo7q12Ndbgycbe/hjd8+jXpbaBs5/dE74oOvxe6X8OPvPgeLsj9RTMHmx/8BmbX/CXfV/ShK8KG/5jn86XeH0B9Q1okuwqaPfQKrC00YaX4VJ21bsR6/wvd+fy6YPhVRjEXR+u2I7z0Db2o5UmICcPZcwJnzrXBJgWxwHU0iCioXIcdsgFZ0Y6izBjW1nRiW8ijqS7BhtRH9A4nIiu/F+foASirTMdzwHo41WqUgVVpHbURexVLkpRqhDQxjsP08ai52Y2RcnYlaFb64SYNFI358810f2selERERERFRCEfmpsWO/v5hpJQsR5wQioHtZ5/FH/dfREAOOC79Ef/3n5/Cj/94Gm7nSTz/vf+OH0vTT377LpzBtUO0xZXQn/w5/uMnv8JF3Xp86P7V0CmXZLa99h38728/iR+/cjE4fz0ZpZlo/tP38avfHoK3/BHsXmMKLpdHDjN3fBIbU1qx/9//Bc+fSkBxiS6YNh0mcxwGa4/g6JkW+FOWoDwrdLGnvP+U8tXI03Wj7uQhvH/6Ejwpy1CRM+5iUE0MvG0n0eLJkoJNC6ovW2HKyYGcQ3n7xJI1KIztQ+2xt6X9N8CXvgJVOVGhbUdpBMRLi3TR4GWmRERERESTYDA3DYIQQP0bz6I982P4/BNP4IF7tqAgUaOkSumeQfR1d6J30CXNuWDt6gjO9w04QsGeQtV6GPuOX0J360nsP3AO2rxipCppfqcFg/29GHR6lCXX6j/7Kk42tKKr9nkcqfEiLTtHSUlEQYEZ7Ud+j9ONzWg98Qyq268KlCLg7GpA26AN9r6LaOzxw2iMCy4XpAC279xrOHD8InoGrXAMtKCt1wuT0RhMDxIdsPZb0D/kwbC9F9a+AQxrtdAGE+NgNmvR11iLPpsd9v5mNHQMIyExOZg6Shj245/2efHVgz5c4qgcEREREdF1MZibJtFyCE9/+xt49mA9/FnbsffxJ7E1f3qjX75hO/xKkOJvOoCXXzuJoeBcZEZcduUV4HaPQKMdDdjiEBMrwmmzBucEwQebFDRNl8fjVl4BXr8PapVamQN0yRVYsWEntu24F9ulaWV2DFSq8M0oVFoN1GoN0pbdF9xWnu7Ij4Og0UB11cNiPB4RFh8DOSIiIiKiyTCYuwGCz4LG95/DCz95Cr8/FYW1O9Yh+gafXCnYL+Hs8YvB++lmw80cyBJVqShZkgd19xkce+8g3jtyEOe7RpTUSHnRUxvaVp6OHHkLh2s6J4xcEhERERFReAzmpkEUSnHnpx7DkqRQ4CYIXrS3d0NtSkDoQkSFFNjdWGg3Uy64RwTExMYG5+R71GKV17Miyog4jRWdTd2wOxxwOOzwiWOjduH54PerIfidcDodwWnEL0DFOI6IiIiIaNoYzE1HwAJP9Eps2XMPSnOykFqwDrs3lMLRcgn9yipBNjtcMXkoKc+HOS0DZlO0kjA1UdQgNjEFCUnSpNcBaj2MyanSfDJiNJGEhxa0t9mRteouZMeqEZW9E0vyAkraLBixw+E3IasoA0aDEcnZS5CbPJ2w1Y6+PjfMBYuQZoqDISEH5as3oTx14mWqchC6e7UW31qpRuIN/1YfEREREdGtjcHcNAhCP44+/TOcF1fjrs98HZ/6i/uR2v0cfv/CuYmXCXYcxFsnRCz6xN/ic3/99/iLeyuVhHDysfkL/4Av/u238Lm7SyGYt+Dj0usvfO0JbBp9xskU5Ae0XH7zd7gQvQ2PPfUjPP5oNgZbJn+QynQJYjcunWlBIHUJVq9dh7JUF7p7fEpqePIDVAYuHcMlewLKVm3C2mXFiO49hbMt45/1KdEKWGyW6tMWwAAvvyQiIiIiui7+ztwtSBQ0MCTEwWsdQNaD38ce/Bz//Oz8OZ7hiMlq/GitCq+/5cELLgZzRERERETXw5G5W4x8qaY+IRE6QQuDeRGKc2LR39ujpC4MmYkq6K0BHLlqwI6IiIiIiMYwmLvlFGHrfwtdqvn5L30KBYN/whtHLEra/CeKIorjBVzuCMDCSyyJiIiIiCbFyyyJiIiIiIgWII7MERERERERLUAM5oiIiIiIiBYgBnNEREREREQLEIM5IiIiIiKiBYjBHBERERER0QLEYI6IiIiIiGgBYjBHRERERES0ADGYm4dEUY3cHV/BY49sgEm85mcA55woCkgoXIc1i7IRPQ/zR0RERER0O2AwN02iLg9rPvYkvvStH+GJv/8WHn3oDiSpJwY0YvljUtqjyLvhQEcLfXIqks2JiFGWfJDE5KXYtnUJEifNvxq6WD30cbFSTomIiIiIaC4wmJsGeUQq757PYXNKM/b9/B/xy1+/Dkfxx7FnS6ayxuwQhBHUPv0EvveDF9AtCMrS+UMQfOg5tw9vHbkI+zzMHxERERHR7UBYe+/aa4ZfsmOyUVtbq8zNPYPBAIfDoczNHVE0Yf1ffRdFp7+CXx0K5Sdu8V7sMJ/Fc2/WwV/1aXztsTWIuirAEVv+iB/88JVg4JP30HfxcMw7OKpfj3W5MXC2vYc3fvs06m2hbeT0R++ID74Wu1/Cj7/7HCzK/kQxBZsf/wdk1v4n3FX3oyjBh/6a5/Cn3x1Cf0BZJ7oImz72CawuNGGk+VWctG3FevwK3/v9uWD6VMSUZdixLBvqq/M/VIOD712CR1qeWL4Tq6R8B5c76nD43To4R/OnL8GG1Ub0DyQiK74X5+sDKKlMx3DDezjWaJWCQAGi2oi8iqXISzVCGxjGYPt51Fzsxsi49xS1KnxxkwaLRvz45rs+tF+VHyIiIiIiAtRZJVlPKa+vMGlN6OvrU+bmnk6ng8fjUebmkhf6om1YnjqEc9XN8ECAp6cWF5r6IcoBh7UZ9dWHcaI7HotzOvHyD3+KA0cO4kT1JViHPcF14it2YkmFAf0Hf4PX374IddWHsCnXghNnOuCX0u2tp3Hm/QM4Zc/CyvQBnDhSB9eVYEaPvHVbUZY4gOoXfo9DtV7kb9mDguFDONfuDo4cZt79OO7Pb8Ebv/ktTg+VYMXaXOj7T+FITa+yjymMDKG3swWtjmhkxttx/sgxXGptQlt3P9xevzwkB7e1Cx1tjWhzm5BjdKGt1QLvaP50ScjJjYet7ixsCZXIERpwpicahVLw19/cixGokFh2JyoM3ag5cw4tfSMwFS5BeqAVnTZp/6OiVNhVrIJZEPF+YwADV8pPRERERESjeJnlNAhCAPVvPIv2zI/h8088gQfu2YKCRI2SKqV7BtHX3YneQZc054K1qyM43zfgQGBcQKJqPYx9xy+hu/Uk9h84B21eMVKVNL/TgsH+Xgw6Jw9e+8++ipMNreiqfV4K0rxIy85RUhJRUGBG+5Hf43RjM1pPPIPq9iglLTzBPwKn0wHHsBeiFKq6HfbgvFOeV/If8LowPCxNbl9w/hqiA9Z+C/qHPBi298LaN4BhrVa5ty4OZrMWfY216LPZYe9vRkPHMBISk4Opo4RhP/5pnxdfPejDJQZyRERERETXxWBumkTLITz97W/g2YP18Gdtx97Hn8TWfJ2SGhnfsD04CifzNx3Ay6+dxFBwLjIjLrvyCnC7R6DRjgZscYiJFeG0WYNz8r1tNilomg9CpdVArdYgbdl92L7j3uB0R34cBI0GqqsetuLxiLD4GMgREREREU2GwdwNEHwWNL7/HF74yVP4/akorN2x7oYf0S/YL+Hs8dl7kMj8H8jyoqf2IN47EpqOHHkLh2s6J4xcEhERERFReAzmpkEUSnHnpx7DkqRQ4CYIXrS3d0NtSkBccIlCCuxuLLSbKRfcIwJiYmODc/I9dLHK6+m5Wbn3we9XQ/A7Q5dvStOIX4CKcRwRERER0bQxmJuOgAWe6JXYsucelOZkIbVgHXZvKIWj5RL6lVWCbHa4YvJQUp4Pc1oGzKZoJWFqoqhBbGIKEpKkSa8D1HoYk1Ol+WTEaCIJsCxob7Mja9VdyI5VIyp7J5bkBZS0aXC74dEkwGyOh15vgD46dF+gKKqgjYlFjDxFScsEHaJj9cF5jSqS/NnR1+eGuWAR0kxxMCTkoHz1JpSnTrxMVQ5Cd6/W4lsr1VP81h0RERER0e2Nwdw0CEI/jj79M5wXV+Ouz3wdn/qL+5Ha/Rx+/8K5iZcJdhzEWydELPrE3+Jzf/33+It7K5WEcPKx+Qv/gC/+7bfwubtLIZi34OPS6y987QlsGn3GyRTkB7RcfvN3uBC9DY899SM8/mg2Bltu4CmgthbUd4jIWHYnNmzchjuKRx9QEo+itdtx56Yd2FCaDEFfgJXS6413bkCRSVllCoIgYuDSMVyyJ6Bs1SasXVaM6N5TONviVNZQaAUsNkv1aeOTLImIiIiIJsPfmbsFiYIGhoQ4eK0DyHrw+9iDn+Ofn50/xzMcMVmNH61V4fW3PHjBxWCOiIiIiOh6ODJ3i5Ev1dQnJEInaGEwL0JxTiz6e3uU1IUhM1EFvTWAI1cN2BERERER0RgGc7ecImz9b6FLNT//pU+hYPBPeOOIRUmb/0RRRHG8gMsdAVh4iSURERER0aR4mSUREREREdECxJE5IiIiIiKiBYjBHBERERER0QLEYI6IiIiIiGgBYjBHRERERES0ADGYIyIiIiIiWoAYzBERERERES1ADOaIiIiIiIgWIAZzRERERERECxCDOSIiIiIiogWIwdw8JIomVK2rgkkUlSVEREREREQTMZibZ0xVO7F3fXbwdfb6vdhZZQq+JiIiIiIiGo/B3DxjPf8Gnm03ojyzHMb2Z/HGeauSQkRERERENEadVZL1lPL6CpPWhL6+PmVu7ul0Ong8HmVu7ohiDtbvXQOTKhWbNq1FZWUlslQdaOh1h9JNVdh1351YLi2vqIiHo6YVpvV7USnUoM0qjG3fcRm9bmleXn9FNBraxgK24DprgfdfOI3otSsQfbkVVkFQUomIiIiIiEI4MjdtRpQZ2/Hss8/imaMdMJZVIkcUQ0HYjgx07ns2mPbsMaBsUTxa2juRkZUb2jQ3CwYbkJEdH5yNz84AbBNH3gShFUfeOC8FcFacf+MIWhnIERERERHRdTCYmzYb6mpaQi9b2tEJA4xybBZvlF+hfOeHsXfvXnx4TSaMRhNgtcFmMAYfZpKbZUBnXacczUnzJsixXGfbUGhfRERERERE08BgblZ14ugzz4RG5qTpD0dagaE2aWkGsuNzkWXoRFuLPC8Fd/HZ0lJpnrEcERERERHdAAZzs2XIBocUnsmXVo4nCFa0yYNxa8pg6GwLXj7Z1mlAVqVRHpbj/XBERERERHRDGMzNEvlet8P76oCyHcHLLOXp4XU5wbQhOZoLxm6hYTh53pBh4CWWRERERER0w4S196695peps2OyUVtbq8zNPYPBAIfDocwRERERERERR+aIiIiIiIgWIAZzRERERERECxCDOSIiIiIiogWIwRwREREREdECxGCOiIiIiIhoAWIwR0REREREtAAxmCMiIiIiIlqAGMwREREREREtQAzmiIiIiIiIFiAGc0RERAuIKMYge/Nf4jPf+AGeeGwDVKKopBAR0e2GwdwCJEpf3GXFWnxjqQrmW/hLXJ20FJsf+Sq2l3+wZRRFNXJ3fAWPPbIBJnaSrnGr1w+P/9ya7/UvigISCtdhzaJsRM9y/sybPos/e2AT0mPC7DdtJ+69Kx2dL/0rfvn8SQQEQUkgIqLbDYO5D5DcCdhzpw6PZ1//i3rFUh3+476o4PTLezXYpJrsC10Fk15AmlGAXlkyW0S1CTmLNmHz9nuxfes2rKrIQuyk+bh5dPn345N/9QiybUdR26YslIi6PKz52JP40rd+hCf+/lt49KE7kKSemD+x/DEp7VHk3XBHSwt9ciqSzYmIUZZ8kGae/xuXdvf/wN99cr0yN5mZ1c9Mync7HP/57Lb4/CUvxbatS5A4af7V0MXqoY+LlXI6uwZr30eHcRv+/MufRaVpigAtOQlG5yWcO30JPYPDykIiIrodBYO57JjsCZOsoqJiwkQ337laN76634OvvudDj7LsegRBxNFqD77wjh/Ns/gXWTnYTCxZhRJDPy4cfxvvV1/GSPISLM4zKmt8MERtOXY+sg0j+76L37zwNjodoTLK+cu753PYnNKMfT//R/zy16/DUfxx7NmSGUyfLYIwgtqnn8D3fvACuvkX72vMVf3w+M8t1n+IIEjn53P78NaRi7DPcv58fWfw9n98B881FeLej25C3GQBpdsDny4KOmWWiIhuX8Lae9eKcgBXW1urLLqWHMxNlX6zGQwGOBwOZW7uyJ2ZBzdpUdjthzNDjWUxIrq6A/hZtQ/tUpqc/pGtWmRe9uL7baEv4dIqHR7X+vBfTgeubF/Q7YMzXYPlwe39+OkZPzqltFGiQY1vbxbw+itevB2Y2FmoqNLiifzQgKpo9+HrB3zoHNehENUCtlepcVeqgDhpvrHTj1/U+NE7bv+TEUUd8u/YDXPnqzje6g0u06VWoCy2B+cbLcFLeeSRu7yKpchL0UMbGEZ/ew1q6nvgkdPEWBSt34743jPwppYjJSYAZ88FnDnfCpfy/qI6EYWLlyE3KQq+oUtoHc5HIarxVk1vMF2mW/Ff8fiufvzHt5+eWC+iCev/6rsoOv0V/OpQqD3ELd6LHeazeO7NOvirPo2vPbYGUVd1sMSWP+IHP3wl2PHKe+i7eDjmHRzVr8e63Bg4297DG799GvW20DZy+qN3xAdfi90v4cfffQ4WZX+imILNj/8DMmv/E+6q+1GU4EN/zXP40+8OoV85TmJ0ETZ97BNYXWjCSPOrOGnbivX4Fb73+3PB9KmIlZ+aMv+2pLvxma9tQNMPv4797aF1NMs+h79+wIVnnvolGgKpSv6exnDVh1CSEMBA7Ut47ndvoc+v5E+Xh7V7H8FaecTV14/W43/ACy+fhl2pZ3lk7jOpr+ObvzgcnL/aVPUjEw1V2PHIR7Ek14xowYWBy2/hld++gJYRqX2EKV+4jvEtf/wj+fxoElFQuQg5ZgO0ohtDndLnr7YTw1IeRX0JNqw2on8gEVnxvThfH0BJZTqGG97DsUarFITIn19j6PObagx+fgfbz6PmYjdGrqqz67nl6z9lGXYsy4b66vwP1eDge5eC57jE8p1YJeU7uNxRh8Pv1sE5mr9ZrH8xbjs++Y31aPjeU3i3b2KaTMzeiy9+IRlv/c2PUHvVtkREdHtRZ5VkPWXSmtDX16csupbZbJ4y/WbT6XTweDzK3FwSUJ6nxgq9iHfP+/FiN1BcqMbygDQ/FEqvylfDOBDA+7bgBkhOUWOdOiCtKwd3oe2XSdsflrfvEVFSqMFSv4hDwe0VOhW25wlouBRAy1VB2OCgtG6LH2+PAFtNwP7mwJVOcPBeugotPpso4vfVfrwkvWeBtP8NEPHOYHCVMALQJRYg2zCMrp4h+KT8+p196Bkahih3REQVEss2oCq+Hxeqz6KpPwBzySIkuVvRbfdL22uRmFOA1FgXOi6cR0OfH0kFFUjytqHL5gvmz1S8AYsSh3DhzBm0DyciNyceOlcXmvqcoSxIMlY9iMXuI3j1TKeyZJQX+qJtWJ46hHPVzfBI+fP01OJCU38wf7A2o776ME50x2NxTide/uFPceDIQZyovgTrsCe4TnzFTiypMKD/4G/w+tsXoZaCnk25Fpw40wG/lG5vPY0z7x/AKXsWVqYP4MSROriU+gX0yFu3FWWJA6h+4fc4VOtF/pY9KBg+hHPtbql8AjLvfhz357fgjd/8FqeHSrBibS70/adwZFywOqlw+R8egr7yPlSoz+DEZZv0fmqUbnsEhb2v4LVzPdJRNij5G8QZOX/nHcje/BBKfUdxpsUVPH75D3wNd5ur8fJ//g7vX7Aha8sjqPQfwdk2dzALhuItWGFowDvV465tHWfq+gGyd38JdyWfxh9/+SscPtUIXeUDWG26iJOXpQYewfGZ2i1+/MN+fgSkVG1CSVQ7LtTUoqnbBWPBYqQF2oPp0CUhJzcetrqzsCVUIkdowJmeaBRKwUd/cy9GIH9+70SFoRs1Z86hpW8EpsIlSA+0otMmf37DucXrf2QIvZ0taHVEIzPejvNHjuFSaxPauvvh9kr1I+XDbe1CR1sj2twm5BhdaGu1wDuav9msf7cP5hX3wNz3Mmql75nx5M+9sXwL1mf049i758P+EYSIiG5tvGfuBnR3BPDWgCgFIH481y4iL3F6X6a9o9v3BvAnafuChMi393lF9LpE9Fw3tlVhUbKA2gYf3pX232IJ4OlaPyxSpyuSp53Jl2/2NpzHgGkJNmyUgraSPCTFjG8ieiQlSR2TpvPottpg77uEhg4PkpMSlPQQZ1cD2gbl9Ito7PHDaJTHCGWx0vaxsLbWoHPQiqHOWrRZNUramKjoaHhGxoK7UYIQQP0bz6I982P4/BNP4IF7tqAgcWx7wTOIvu5O9A66pDkXrF0dwfm+AceEBwSoWg9j3/FL6G49if0HzkGbV4xUJc3vtGCwvxeDzsn/eNB/9lWcbGhFV+3zUifRi7TsHCUlEQUFZrQf+T1ONzaj9cQzqG6PUtLCC5d/QbCg5lwLkqqWI1k+nqpylJYAl8/VTCif5czLofzVvYq3Tw0hIzdfSclCUbEelw7+P1xsbUd3/VtSej9yikqV9PDC1U+sXg//YAuaOrpgkTrmb/6fL+OnrzUH0yI9PpO51Y//qMk+P/Lns+/cazhw/CJ6pM+PY6AFbb1emIzjLoMWHbD2W9A/5MGwvRfWvgEMa7XKvV1xMJu16GusRZ/NDnt/s/T5HUZCYnIwNZxb/vPnH4HT6YBj2AtRClXdDntw3inPK/kPeF0YHpYmKdi6rlmrfxfcIwKiYsbuGhTFYuz6+o/x5D/9CF/ak4azf3p+wlUZRER0e5oQzF19n5w80bVc3oDyCnB4Aa0aUEcQLI26enud9E0/ne2noteKcIaukAyydPnx48ZARJ1lmeBqw+l33pQ6Q/0QjYVYuv5OFCVIBQySOiVaP7y+sb8ie7w+qHRRE4JFjyc0yiPz+n1Qq8ZvL2LEHbphX+4cukfG1r1iiryKlkN4+tvfwLMH6+HP2o69jz+JrfnTu3PEN2wPjgLI/E0H8PJrJzF+YDScEZddeQW43SPQaEc7jHGIiZXq32YNzsn31tikTttsGjh9El0py1CRIn14C5egQFWDCxcmdizdw2OXJA+7XNDoopXjEwVdlA6Vj/4EX/+fPw5On96SBrWU/9l6tHnz6eNwVT6GLzz+19j74b1YW5kB7SztW3Y7HP/JPz/SuSK5Ais27MS2HfdiuzStzI6BShX+b3Kh0mqgVmuQtuy+4LbydEd+HASNJuLjf7t//m7Ujda/fGnmmGYc+tk38bP/9R08c8iJxbu2IWkWP1tERLQwTegFyPfFXT3R7UcI3gtXh/PHD+B0hwb5hdnQzEqnQR5dUl5OQQxI7yVM3kEVfBY0vv8cXvjJU/j9qSis3bHuhh8RLtgv4ezx2XuQwSztZnIDx1DXlo6SJanIqqiCrv40GiK5Qu6KYVz8k9Qh/IEyff/v8ZM/nog42A/HU/cb/Ns//RD7T1yGXVuANX/+JP58a4aSOjtu1+MvqlKl454HdfcZHHvvIN47chDnu0aU1Eh50VMb2laejhx5C4drOqd1/G/rz9+MRVr/0rlSOgWK4tgf/gTBC2dfJ/o6G1F35hKc6dlXRjSJiOj2pZK+MoIvoqKufzlKdHR08N+JfyG8vcVqxwINg1YenYLyl+YAHB45PfQFLN8jFqcBnN6JHZ3Jt1dIq99Y10h6L58AfeianqCUbA2+XBTZZZaikISCFUuv/MaRPHI2ZLVDkNpAqHV44fWqodWMGynQahDwuCPsDHrh8wrSNqEMyve4aOVhyas4nXZEGxOvCSBFoRR3fuoxLEkazZ8X7e3dUJsSMHohZ5C03Y3W38yELo2KiY0Nzsnli1VeT8sU+ReEQZw714jUst1YUhKHhrNnJrYdSVSMQXmFYF68nhHl+LjhcUdB5e0JXf4mTUPDKmgiOnaREVRqeAfrcP6d5/Hab7+Dpw9akFlSDt34Y3mDx+e2Of6TiTJK5xMrOpu6YXc44HDY4RPHPovh+eD3qyH4naHLB6VpxC+dGyI8/LdP/d+s3E+n/hMRZ/TCYZskWNfpoPN5pD0SEdHtTiV/7foDfuTk5ECtntgxkOezs7Ph84UeXkEhqZkqbE0UkGdW44FMAS1Do50bATV9IgrytLhTSi9M1+DedOBC79hfV2VpWerg9vkpKuzJEtCkbH/FiIhBUYVFWSqkxgpIkaZYQTpS0jGIiwnNp8pXNknvl6hXBecNwd+CC+CcRURloQYb5fwlq/BnpSro/RFeZhlwwa/JQElFMczGOBgSslGWnwzPYL/UTZI50G8ZRlJ+FdJMUsfSXIzCTB0sloieriIZxtCQG/FZxTBpBWiMBchIuLZd9V6+jOH8pai4+kf0AhZ4oldiy557UJqThdSCddi9oRSOlkvoV1YJstnhislDSXk+zGkZMJtCf5AIRxQ1iE1MQUKSNOmlClbrYUxOleaTEaOJpP1b0N5mR9aqu5Adq0ZU9k4syZt47CMSJv/W06fQlbUWixLqUHfh2stUk5fcjRWFOUgruwublsWjq6VRSWnH5UtWFGz6GKrypfor3Ih7P/d17Fp8VUVHmULvOzqlJgSDsXD1Iz8NddEnfogv/cVdKMxOQ1JGBSry4zFstUhh/Dhhyid3wpcWqvHhXKljPv68c7sc/8mM2OHwm5BVlAGjwYjk7CXITY4kX6Ps6Otzw1ywSPr8yp/vHJSv3oTy4MlkzG1f/243PJoEmM3x0OsN0EeH7guUHyCkjYlFjDxFScsEHaJj9cF5TUS/xRlZ/cvUhStQFHMZzY2T5D8qClopn9MdlyUioltP8GmWdr8dgl9AgjEBVmvofgOZHOA5nU60trYqS+bGfHuapdATgLFQG+zseKRA7Rd1ftiUEc6hQRH2OBXuL1Vji1kK9Bp8+HWbGHys9ej2qh4/EqSA6+FcFdzS619cDFzZPigQQLdPChhLNdhTpMaOfBUCnX7UeqTgbLMWny3RYJtZJfUlVFhfIKcLiO7z4+yIAMuACJdJjfuK1diWLsDe5ce/XxLhHL//SQTvMRmwQWsuQkFRMXIzEiAMXMLZC21wSx08uQjDUmAXMOajqLgIOWY9nG3VqG22KqNDoafxRQ3Vo9se6txEmwuRqepFY68juL3LPgx9dgXKS8qkYNiLgaEYxAW6JzzNMmDpgFi6B5srvLh8vhEu5bHjgjCMjoYOGMq2Y/223VizPB9ofgXPPfcebMqj94NsPXAmrsL63fdg3catWGxsxeFzXcEk+Wl6VZpz0vxVj4gLKsTOv/k77Nm+DauKkyHo87F44zas3rAS2ktv4PJg6GmRcW2v4HxHqJNlKt+BRdqa4P7lB1QMdA0iec2D2HX3fVhb6kBTWyJS/NURPs1QMUX+g0b6EVuxG3m9r+Gl463jRuZCT/vDhUOIvfOT2L42H976P+HFV2qCj7aX8zfYdBn+vE3YtPMerFiUAff53+H51+vhVtqH/DTLlStWYdW6LVemlatM6Nx/UuoqF01ZPw1DAfS2WZC4bDc2bb8ba1Ythsl2FK/86U30uyM7PkFaNR5bq0a+LYDXxkUJt/7xD/P5gUOKk3RIyStBQW424tU96BiSgjolPfg0xWwd+hu7IEqf4QRPEzqHE64sG5aqaHhI+vya8lFcUoKcNCN83edwrqE/+OTaK27b+le4nXDHZKJAqqP8PKn+tYOh+kUCSjduxuLCQuQkx0rn3wRkSOk5uRlQ9zfA4k+elfpXGZfi7kc/BP3JX+HV8wNXHr4yQWwJVq7Lhv3scbS7biBgJSKiW0bwd+aU10hWJ0udbRd6enqQmpoavMSypaVFSZ078+135vKb3PiXtut8wVJE5L9wR8Xq4HcPS52xu7AEJ3CgxqKkhsi/h7bxk1/A+pR+HPnVP+LdloVT36KggSEhDl7rALIe/D724Of452dn7/5TUczHriefQNL+L+Ppo6GHychGf4cr/dDn8btjC/cCLFWqBj9eJeCltzx40bXwPmc3+/jfbKz/uWNc+Wk8ev9iuE/9O55+rhoO6TvnekQxCYsf+RLuXpYCTc2v8e1fvDut+x6JiOjWMeEpEwOBAZjiTUhLS4PRaER7e7uSQuPxK/PGyYGcLjYaaqnpRcWkIiVeC5fjOj9D4GnGuz/5W/zk6XfRc50HXs5X8qVi+oRE6AQtDOZFKM6JRX9vj5I6S/JWodRUj7pzoYtfr7bQ72/NTRSgHfTj0LXNYt77QI7/Tcb6nzuBoXN441+/hp//cfJATiYI/Tj72/8P3/vvT+Knz59kIEdEdBubEMwFxAD6vf1ITExEW1sb/P5pPSaPKAKJKL5jO+7ctAPr1y1HkqsWF9omC0q8sF4+hPruhdRRKcLW//YP+OLffguf/9KnUDD4J7xxZOKo40xlLl4CY2M16hZgZzscefS7VAomLrSJGFyQHdSbf/xvJtb/3HJcPor6Htf1L628inxZqd9lgWVwbHSeiIhuPxMusxyVHZM9r36WYL5cZklERERERDRfTBiZIyIiIiIiooWBwRwREREREdECxGAuAvJlnkRERERERPMJgzkiIiIiIqIFiMEcERERERHRAsRgjoiIiIiIaAFiMLfARacUozI/CWrxml+YCAqXTkRERERECxODuQVMFKORXbkYmTEe+K/zI7Ph0m8W+YeHk8vvxJbVeYi9CUHkzd7/7e5Wr1+2HyIiIrpVMJhbyGKzkZ1oR1ubTVlwlXDpkxDTVuL++1bAfFVHVxT1KN/+MDbkhWs2akQb4mAwxiJKWTK7bu7+Z17+m2uy/I0Klx7e9et3tso/8/zN1O3ZftJX34+9e/cGp4cf3og81VzV/+RETQKKVm/DPQ88iAfu24VNy3JgmIf5JCIimi+CvYrsGKnTP26SVVRUTJho/tFnZyPB2obWSWK1cOk3iyD40H78Zbz4Zi0Gb8KI4M3e/+3uVq/f27X99FbvwyuvvIJX3q6HXVk2n8gjpuaqO1AV14+z776JA+/XYyR1BdYUm5Q1iIiI6GrC2nvXinIAV1tbqyy6lhzMTZV+s8m/8+ZwOJS5D95cv//1iGIsynbchaz217C/zqksHRMu/XrE9NXYsz4H2qs6uGL/Wby0vw7DMKBC2mdS5yn4MiuRpg/A0Xke7x9vhkPqiMnMy+7B5qLY4GvRWoPXX6+Bfdz+xOhULF69FHlJBujggb3vMk69XwuLL7JO9c3c/2yUX9SYULx8JUoyTIjyO2FpPosTZzsxHGHQIGqTUbZyCQpTjNAFhjHQdh4nT7fBKW0fNn8Za6ZMH5GWy/V3h64R9VF5KEvUYmSwBdVHq9E9EtpmqvqVR5ZC5T8BT8YiZBhE2KXyHzveBLtUflGMw6Jdu2C6+EccbgkEt0laeg82Rp3Gc0c7w+Zfzl+4+ruZ7WesfJMf36nMi/YjbV+4bDlK06XtxRGp/dTgxJlWuMblX4wrx65dyaj/4ztoDlyV1ynaXzA9TP3P6PMnRqN0271Ib3kBbzd4gsuisxZhqb4bx+p6EZDyII/clSxfjuK0OCl/TvQ1ncXJ892hthPB8RM1SShfsxLF5mh4++vQMFyEcpzECye6g+lEREQLjTqrJOspk9aEvr4+ZdG1zGbzlOk3m04ndQs8oS/3uTDX739d+gIsq9Kh/WQd+r3X6SiFS7+ekX50tTThsjUauYlWnHzzPZy7fBkNbX0Y9vohSt0zc2ExMg0uNJ85i9ouH9LKFiPV04zWQV9oFwMdaG6Uthk2oSjehYaGPnjGdUSTKjZiRVwH3j98EnUtA9BkVqEopg+NfSPKGlO7qfufYfnlkYWUJduw3NiBk0dPo77LjaSy5cgOtKBFqZ+pyNtnrNyORVGtOHPyPC52OJFYuhxZ/ha0Dknbh8vfyMCU6ZDqSZ9egrz0KNgvnkJ1fS/UUv1UJjmldazBzvLU9Tu+/GdwsdOD5JIlyPCNli8KqUVFiO6/gDZr6NK42LQS5Gq6Uddhj6B+VWHr7+a2n9HyOdFcfQZ1nX6kXtW+pzQP2o95yWasSRrC2WNS/XQOI6lkOfLQhuYBr7KWJMqMIimg7b/QgiElyJGFbX+ScPU/s+PjR1RKMQpMLrS2D8IHAT5bL9r7XRClYySKKql8W7AqoR9njp1CfY8faVVLkeZuktqb1L7DHD9RFJFUtQmrpfqpfv8UmlxJKCpIRJSzQ2rL8+uPdURERJGa25t/6IbF5WbDNNSOtkkG3cKlX4/gG4HNbofN5ZU6nl64bDbYpXm7PH+lwws42y9KnbNBWLtqcUHqMMUnjF0GFfC44HQ64XTLnatrRUVFwe8cQt+QtN/BTpw78CLerBlUUsO7mfufefmNSEvTorvuHLoGbbD2NqCmxYnkFLOSPjVBENF17AW8+E6t1IGV9t/XhIYuLxKS4kPpYfIXaf5Vg00412KBVa6fi93QJCVhtATh6lfmaL2IJosVg90XUdM6jERzkpIytfD5C19/N7v9yBxt0vENlk8+vr4J7Xsqc91+AANSzHr01p9CS79V2r4RZ843wIUYCBHcnxiu/cnC1f+MPn/S+3fWnEF//HLs2rUFqxcVICV2/FeUAanmGPRePo1WqXxy+6tt9cKcOrH9TX789NK6BvQ3nkGzVD5Lyzk0DamVNCIiooVpQjB39X1y8kTzjygakJNlwkBrG1zjOomjwqXPlMc99ld2r9cHtSbyDlFfayvcGauwe8dm3LFyEYrTjbP6swk3e/+yycuvgUatQfa6h/Dggw8Gp+1lJqikdFWEeYhOW4SNO+/F/XtC228sjIFKPbt/c/F53MFROFnAchknz3dIHf7Ieb1u5ZVUFx6vVH5NxOWbWvj6+yCOr1eqn1Fer39a7TsSN6/96BCl80vHZCxQdbWdxdFLlgnB5FTCtb9w9T/T4yM4m3Ho1ddw5GIfAgnFWLdzKyqTR+tHC51UPu+4QNzt8UCji5pQP5MfPy2iNCJGRoaDc4IQgMs1ti4REdFCNKGXKN8Xd/VE85AxB5nGAbS3TzLsFi59Dvl6TuPN197F+ZY+DKuSUXLHNmwqNSqpM3ez9x+eFx2n9mHfvtHpdbx+qv1K8DQVUZWGxasLoG4/gXf2h7Y/2RbJ5Wk3ThixoKXFEvE9WTff1PU398f3Zrvx9jNTkbS/cPU/G8dHCLjQ21SD42/vw+EWDUrLc6GdlYBd+rqbL82ciIholqgE5dtNvjzmeqKjo4P/CvOms0emnEwYB9rRNslwSrj0sGaj3zQJUVDB7+xD66VaVB87gHfrnEhMS4FmVjprs7T/G86KDz6/Giq/M3R5nTS5fAI0kfYgo+Nh1A2htb4LgzY7bDYb3OJ1RuXC5e8mHj+ZVjt2rtDptPD7fEqw4YXHKy/TBdPke7CipHSv+6rRj0nzF77+bnb7mRVz1X7k+veopfrXKPNAbO4KrC81T7zMUnp53SxG0P7C1f9Mjo8oJKN8w0rkxobWlUfO+gcdUEXHICa4JFQ+bdTYSGmU1NbGjzRPzQOvV4BOqw3OBdtnVKitEhERLVQqUfpa9wf8yMnJgVo98XIieT47Oxs+qbMm3zxOc08UjcjJMsLS2hZ8gtvVwqVHZGQYbl0C0tMSERcXB2PMWOdwKvIDCnSxeuj10iR3uAQdYgwGaT4WWrmliWrkrbsfd28sRUqCAQZTCrLMMfAMO6VuWng3e/9X3GD5ARu6u91ILVmCnCQjjMl5WLFpO5ZmhjqPYQ1bYfcmIL8iGwlGE1LzV6LkerdLhcvfTTp+o+JyK5CfbEJCWikqc2IwYOkPLheEEfT02JBQuBi5UnpiZiXKM/zo7R4Kpl8xaf6mrr+b3X5mzVy1H9jR3edCSsky5CaZYEopxNLKnOBTHydcZjniwrAYj/Sc+FBd6GOgFaTyh2l/4ep/xp+/gAs+TRaqlpchPUEufy6WFZsxMmBRfkrBjp5eqXxFy5AtlU9ufxU5WvT2hNpfeC4pOBxBcn4ZkrQqaOOLkZfE7zUiIlrYgk+ztPvtEPyC9AWeAKvVqiQhGODJDwtobW1VlswNPs1ynMRirCgBmk5cxqB0zK4RLj0SIw649TkoqypHWUkxcqMHQk8jVJ4WFztwAa1DoU7QhKcVIhFLdu3AmooSFKXqIUQlIa+4GEVFWdB016NnWIRtwIm4nDJUlpejJD8dscOtOHX6EhwRPLr85u9fcYPll/vLTosF/uRCVFSWoyjTCG9HNY5fsEid2fDvL8CBQVsUMorLUV6SiyRNF5r7jUjV9Cjvr5g0f4op0uWnWWaru3Cx43pP75u6frtdofKrupoRU7ISiwoS4euWHw3fC7dSvpF+6XV8HioqylCYGoWh+uM41eyYOHIySf7C1Z/8gIyb2X5Gyzd5+47QXLUfaRWXFFh7E/NQVhHa3t1x5trt/TY4vEnIr1qMqrISFBenIdDWAIt76vYXrv5nenwEwYvBXiui0otRJm+fkwTBcgHHqluk4FPev1Q//f3wJ+WjvKIUhel6OJtO4mS9Fb5g+wpfvw6rC8b8RVi6uBLFaW70DsbAFOjk0yyJiGjBCv7OnPIayepkuOwu9PT0IDU1NXiJZUtLi5I6d/g7c2MSFu3GloR6vPh2A7zBDsxE4dKJiG5n8ghtjD4KvhEXEpd9CGtwFC+e7FVSiYiIFpYJN0QMBAZgijchLS0NRqMR7e3tSgrNB6KYgOwsPfra2q4bqIVLJyK6ncmBXJQhBmpB+lefhoxELRw2jsoREdHCNWFkTqYTdEiNTkVjYyNGRm7uk/QixZE5IiKaKVE0Y+WHNqEgWkDAPwJ7z0Ucf//ijV+STkRENMeuCeZk2THZ8+pnCRjMERERERERTXSd554TERERERHRfMdgjoiIiIiIaAFiMEdERERERLQAMZgjIiIiIiJagBjMERERERERLUAM5oiIiIiIiBYgBnN0U0WnFKMyPwlq8ZpfwAgKl05ERERERNfHYI5uGlGMRnblYmTGeOAXrv1R3nDpRHTrUsWmo2L1JlSlze4fckRRQHL5ndiyOg+x0/wjUVzxWmxYko8ELf+4dLuaSfuh+Y/Hd27Ndf3fqsefwRzdPLHZyE60o63Npiy4ylXpoqhH+faHsSGPzXIuiaIWqYu24O4HHsLevXvx8ANrkD6PTnpi2krcf98KmK/K01y3n/TV9wfrK1hnD29Enmr+fVGImgQUrd6Gex54EA/ctwubluXAMAf51CRXYOv25UgebkHHgLJQMfPjq0a0IQ4GYyyilCWRcnW1wBJTjDu3r0V2zPw7frNhsvqN1Fx+/iJpvzMt30zaz63GvOwe3L86XZmLzMzr/8aZqnbi4fW5ytxkZnZ857J8V7uR4zP35vrzNfX7z6fjOx3sNdNNo8/ORoK1Da2TxHLh0mmOxOSiolSHnhP78Morr+DVN86gV0miyfVWh+rrlbfrYVeWzSfyXyTNVXegKq4fZ999Ewfer8dI6gqsKTYpa3wwRHUKlqwphqfmIN4924RBz+yOyguCD+3HX8aLb9ZicJoj/n5HFy68dwDHLElYsaoQ0QvsC/1W9kG135m0H5r/eHzn1lzX/616/IW196695tsqOyYbtbW1ytzcMxgMcDgcytwHb67ffyESxViU7bgLWe2vYX+dU1k65nrp8l92K6RlSZ2n4MusRJo+AEfnebx/vBkO6Ys8uI7GhOLlK1GSYUKU3wlL81mcONuJYeVDKf+l6g5dI+qj8lCWqMXIYAuqj1ajeySy7adirNiBjbpqvHR6EEWbH0DRwH68dtaGwk33IrH+OZzoFma0f5kYnYrFq5ciL8kAHTyw913GqfdrYfEp+dcmo2zlEhSmGKELDGOg7TxOnm6DU9q/GFuK7Xfno2ffqzhvDa2vzr4DH1rqweGXTqBXqcNwxLhy7NqVjPo/voPmwMRtwtdvAkqWL0dxWpyUPyf6ms7i5PlujMj5k/d7pwk9/UnIT+jFqdoAqpZlwFn7Dg5eHJJOslPnT0xfjT3rc6C9aj2x/yxe2l+HYRhm3H7CkbcvXLYcpenS9uKIVP81OHGmFa5xdTtV/U11/ILp4Y5/mPSpyJc1l267F+ktL+DtBk9wWXTWIizVd+NYXS8C8jGa6vhF9PlMQvmalSg2R8PbX4eG4SKU4yReONEdTJdpctbhvkonDr5SPeHLdDaOr9w+NxfFBl+L1hq8/noN7OPfI8L6E6OLsPWePHS9vg91jolpk/lAzg9h6neq/YerX/kYT2WuP3/h2q8/Y03Y8oU7f03Vfmar/U8mov1Pdf6P4Pwarv7F6DQsWbNU2j4KI1L+m+T8q07h+WNdwfSphG0f+rIpv596AmPtxyuVP10vwtFVi6PHG2BXzqPh8i+PzO0wXcQfDrcE5682k/PDTD8/simPXyTHfwbHZz6cn6b8fBnKsHN3Bppf3o9Lw6FlQsoK3LtGhaMvHQv2X2aavynffxaO71xSZ5VkPaW8vsKkNaGvr0+Zm3s6nfSx8oRO3nNhrt9/QdIXYFmVDu0n69Dvvc6H4LrpOpgLi5FpcKH5zFnUdvmQVrYYqZ5mtA76pJOdgJQl27Dc2IGTR0+jvsuNpLLlyA60oEVKl+nTS5CXHgX7xVOoru+FOrMKlUlONLRZ4Ycq7PZT8cSkoSrZjYutQHZ+KgxqKxrbRGRVmDFS34g+z8z2L0uq2IgVcR14//BJ1LUMQCPlvyimD419I8HyZ6zcjkVRrThz8jwudjiRWLocWf4WtA5J+/cMQyd9CWSpOqT13dL6KqSXL0ea/QKq2x3yn6SUd7k+MXkx7t69HosLzYgWDEgvLUd5uTQVGzBY1wGHtP3U9auGeckWrErox5ljp1Df40da1VKkuZvQZvUDUWYUlSRiqPoUhqT3KlBdwrH2KJQVx6LvUnf4E/JIP7pamnDZGo3cRCtOvvkezl2+LL13H4a9foiz0H6mEhwZWLIZa5KGcPaYdHw6h5FUshx5aEPzgFdZSyKXU/rC6L/QgiFpm1Fhj59kquMfSfrU/IhKKUaByYXW9kH4IMBn60V7vwuiVPdye5ny+F2pXyeaq89I5fcjdUL9ikiq2oTVUv1Uv38KTa4kFBUkIsrZgYudY38MS8itQq6/Gac7rhq/nOHxDe5ioAPNjdI2wyYUxbvQ0NAHz7h2FXH9Se8Xl1sBk70O7RFeOXCzzw/h6jds+w5Tv+HOD3P9+QvXfiMp31Tnr4CUPnX7mZ32P7lw+w9z/ghzfnWF+f6TP/8ZKzZjSWxXML3JkYiCgiTEuKT8d0SQ/3Dtwzv199OE9lNdjboOD5JLFiMz0Bo8v0bSfqJTClEY3Y9a6Xhez4zODzP8/IQ//4c7/jM7PnN9fpJNWf9uD/Q5lTB7GqT3k79vgOSiZch1X0J1mx2BGfbfZFO+/0zPj3OMl1nSTRGXmw3TUDvarh2UC5oq3dl+UTp5DsLaVYsL0gktPmH0Mhoj0tK06K47h65BG6y9DahpcSI5xaykh6gGm3CuxQLrYCfOXeyGJikJoT1Etv1kAnY7hmNjoVcZoPf0YEBrQCziYIhywBYsx8z2L4uKioLfOYS+ITvscv4PvIg3awaDaYIgouvYC3jxnVqpAyPVT18TGrq8SEiKV9JdaG8bgCkzC3Hy5WEqMzJTgO723lBnJ5yBery7bx/2HWmAAwOoOSC9lucPnodFWUU2ef0akGqOQe/l02jtt2Kw+yJqW70wpyYFU4P80p57+9A94IZrsAv93f1waXXQKslTEXwjsEnHwOaSvtjhhctmg12at8vz48o30/YzOQNSzHr01p9Ci1Q+a28jzpxvkDpJMRDk+g4j3PGTTXX8ZeHSpyK/f2fNGfTHL8euXVuwelEBUmLHfwVEcPwkjjapfi1yuly/vnH1q5fWNaC/8QyapfJZWs6haUitpI3R6DTwea/949jMj6/0GfW44HQ64XSHOgNXi7z+vPB4BWi1GmU+vJt/fghXv1PvP9L6ncxcf/7Ctd9I8zf5+St8+5HNtP2HM9n+Izl/TH1+DVf/BiQn6NBz+QzapM+/PGrU1B++XYwKV/+Rfj85WutC5e+5iJrWYal8iUrKTD8/Mzs/zPjzE8nxk0zevmZ2fOb+/DR1/QuCDZ3dLiRnpAefbi6KcUhLjUJvV0/wDy03+/jP9PjONQZzNOtE0YCcLBMGWtvgus6HIFy6xz32V3Kv1we1ZvSEoIFGrUH2uofw4IMPBqftZSaopHTVuM60z+NWPvzSh9dyGSfPd0gdbllk20/K7oQrRg99nAGCswc26eQap5dOji67FPzIZrh/SV9rK9wZq7B7x2bcsXIRitONE362ITptETbuvBf37wntf2NhDFTqsY+xo60dg8ZMZMZJM8npSFV1o7178o7JeEJgBA75ZOb0IAAfRqzKycw2DN+44zR5/Wqh0/nhHXeidHs8Uuc9Kkz5pS965dVsmGn7mZwOUVL5PJ6x8rnazuLoJUvEJ/twxy/c8Q+XHo7gbMahV1/DkYt9CCQUY93OrahMHq2fyI6fVzr+o7xe/7j61SJKI2JkZDg4JwgBuFxj646a6dGe/PiGN+36m05Wb/r5IVz9zvz8Mxtu3ucvXPuNzOTnr8jMtP2HM/n+w58/rm/0Exeu/rXQaMY+/3Lw4faMu+JgFkTy/eT1jpXfI72/WqNR8nfz2/dMz6/hRHL8pmpfMzo+c35+Cs/S1Q1vcgbS5SIbMpBqsKBLCmhD5sf5bb5iMEezz5iDTOMA2tsnGZYLlz4lLzpOKSNGwel1vH6q/cqX89WEEQtaWizjLuGb3vYTeKWTniid/BIM0rdSD5zuaMQl6hHlcox74MUM9i/x9ZzGm6+9i/MtfRhWJaPkjm3YVGoMpomqNCxeXQB1+wm8sz+0/5NtYx2nIGcb2geMyMw0SN+V6dD0dKAnoKTdBNfW73w3s+MzE5Ecv6mOvyxceiSEgAu9TTU4/vY+HG7RoLQ8F9pZ+TKUvk4iqMZA8L3mpr1Mp/5UchanUy83/fwQSf3OXfuOzMzzN5vtd3bPX5G1/xsV0fk/rDluHzP+frq5+Z+N8+tkZuf4zcC8OD+F0dcltQcz0lJUiElPQ3x/FzonxKvz/fw2dxjM0awz5WTCONCOtkn+3BkufXI++PxqqPzO0IiRNLl8AjQRn0Fmur10MnTGIClFixG7BzbpDGhK1cMnvQiNzMx0/9IJX1DB7+xD66VaVB87gHfrnEhMS4FG7qxEx8OoG0JrfRcGpfe02WxwixM/woIwjLa2AcRnlCEvLQo97V0f4InOC49HDW3U2F+So3S6CX8JnxU3HHfM9PiEyqfTjV16F5u7AutLzRMvs5ReXjeLERy/KY9/BOlTEYVklG9YidzY0LryX077Bx1QRccgJrhkpsfPA69XgE4buqhLvkckKkoXfD2e2+2GLiZm8r94hy/KDYu8/mIRG+3HyPB0RiZu9vkhXP1GuP+Z1u8Nbz+z8odvv4qb2H6mFln7v2ERnD+mFq7+Q+mjn/9g/nWRXAB/lSnqP5LvJ6127IHxOun9/T6fss5MPz/hRXR+uNH2NUvH78aPz1yfnyIQ6EFXrwqpqalIS03CQFfnuHsab/7xD5qz88fMMJijWSWKRuRkGWFpbbvu03/CpU/Nhu5uN1JLliAnyQhjch5WbNqOpZmRntBmtr0gjMDu0MJslk6L0onQ4fQjOSUOLufoExJmtn9RVCNv3f24e2MpUhIMMJhSkGWOgWfYKXWzJcNW2L0JyK/IRoLRhNT8lSi5zuXizvZ2DCbkSp2ePnR0RXZj8Oywo6fXhZSiZchOMiEhrRQVOVr09vQr6bNkZBhuXQLS0xIRFxcHY0yk9zXNtP3Y0d0nla9kGXKl8plSCrG0Mif41McJl1mOuDAsxiM9Jx56vV6aYqAVpG+IMMcv3PEP2z7CCbjg02ShankZ0hPk8udiWbEZIwMWqWSymR4/l9S5HkFyfhmStCpo44uRl3TtN6Ottx+e5CxkTfY9f4PHV35AgC5Wrm9pkjs8gg4xBoM0HwutSr4HI/L6U0n5S9VZ0Dv+ZtEwbvb5IXz9Rrj/G/78KObq8xe2/SpuUvsJL7L2f8MiPP9PLlz922EZ8CC1aEnw85+YXYWCibfLRiZM/Yf7fjLklCI/WTr/pJaiMicGg/2jP0QZYfvRxATf98pkjAkGY7N2frjR9j/j4zez4zPX56dIPl/B+wq7ehGVWi61ATu6OsdfvTWz/EX8+Z7p+XGO8GmWEeDTLKchsRgrSoCmE5cx6L9OsDZleuhpTrEDF9A6FPpwxaaVIFfTjboOu/RBl74ILBb4kwtRUVmOokwjvB3VOH7BIp1sQ/uSn1aWre667tOdItk+HMGUi7LUEVw+2w6bNhGlJfHov3gB3S75Bu+Z7V8+kdkGnIjLKUNleTlK8tMRO9yKU6cvweGT73twYNAWhYzicpSX5CJJ04XmfiNSNT3B+rnC64IuoxRmex1ONg9Nf1RskqcxysLWb38//En5KK8oRWG6Hs6mkzhZbw3dcyfvNz8KPXUdEKX9JLsb0CI/8UpZJj8tMyIjDrj1OSirKkdZSTFyoweU8s+8/UxF3t5l6Yc3MQ9lFaHt3R1nrt3eb4PDm4T8qsWoKitBcXEaAm0NsLinPn5hj3+Y9HAEwYvBXiui0otRJm+fkwTBcgHHqluk4FNpv1Mdvwjq12F1wZi/CEsXV6I4zY3ewRiYAp0TnuYnOqwIpFWhMsOHro4BeK5qYzd6fKWTC5bs2oE1FSUoStVDiEpCXnGx1JazoOmuR89wZPUnRKdj+R1ViGo5iepO5UmJEbq554ep6zfi/U9avxGas8/f1O33iinKN9X5K1z76XbNTvufXJj9hzv/hzm/OsPUv3x+sffboJPqt6KsCOkxFrRbjUgWJquvSYRrX5N+P4XKL3Q1IrpkNRYXJMLfcw7Hz/cEzxGRtB/5aZZFeTnSMSu6MhXmRqO/rl0KhZJm5fxwo5+f8N/f4drXzI/PXJ6fwn6+lJ8j8Ls0SFlcCLOrBdW1PXAr7WOm+Yv0/Wd8fpwj/J25CPB35iKXsGg3tiTU48W3G+BVPoTjhUunmRPFBCy9ewviLryAQ80f5MgcUegvoDH6KPhGXEhc9iGswVG8eHLiz87Lv2dXtm49yuNcuPDeflwcmB/ngtjc1bhzaTp8LUdx6HTXvPxtoUjql+YOj8/UJvt+Gv2dtcTLf8Th5pt4ozfdVGz/c4OXWdKskU/S2Vl69LW1XTdQC5dOsyQpCxmxFnR0RHTxHdGskb/IowwxUAvSv/o0ZCRq4bBd+4cwwTeIurdfwRvHGmGdR8004OrCmbdewb55HMhFUr80N3h8IhDm+4k9g4WL7X/u8DLLCPAyy8jI12T3XJYvEbj+X9XCpdPsSCpahuJAC040Dkz/EkuiGUnGst3bsbq8BIX5qdAOXcCpc1JgdPWllBL5siGvawgOz/xpoz6XTcpPQMrbfP3cRF6/NBd4fMKZ/Pvp2ssMF5ooYzTK7quCrX0IfrfvA5+fe2z/c4WXWUaAl1kSERER0fUYs0zIXpuPtveb5uTfmj9UKzmh2xGDuQgwmCMiIiKi66l8eCkuv1EHt20kOGJWtLPsA52X/6XbF4O5CDCYIyIiIiKi+YYPQCEiIiIiIlqAGMwREREREREtQAzmiIiIiIiIFiAGc0RERERERAvQNcFctDoaoihCr9crS4huXHRKMSrzk6CW2tT1hEsnIiIiIqLrmxDMRQlRSFQnoqenB1lZWYiNjVVSiKZPFKORXbkYmTEe+K/zI7zh0mlhEkUByeV3YsvqPMQySKcFhu2XiIgWkivBnFbUIkmbhLa2NgwMDAT/zc7OZkBHNy42G9mJdqkt2ZQFVwmX/gFLX30/9u7dG5wefngj8lRz05ET01bi/vtWwHxVR1IU9Sjf/jA25M3s6ujJ9j971Ig2xMFgjEWUskQWrn7nS/3fbKJ0rk1dtAV3P/BQqKwPrEH6PAoabnb7u9lm3r6v336vx7zsHty/Ol2ZIyIi+uAFv5U1Xg3MUeZgAOdyuYIJ8r8M6Ggm9FLbSbC2oXWSWC1c+gett3ofXnnlFbzydj3syjKaPkHwof34y3jxzVoMjhtxDVe/t039x+SiolSHnhOh8r76xhn0Kkk09yZrv0RERPOROqc056kMfQZaW1uvBHKjvF4vhoeHkZeXB4vFoiz94Ol0Ong8HmXugzfX778QiWIsCpcvgq79JC72e5WlYyZLF7XJKFtzB9asWIrKkjykxI7A0mWFN4JOlWgow84PLYa6qREDvtD6QsoK3Lc1C0OXOuCEMOX+Rb832OY9qkQUFsWi/0ILhsSx9xXFOCza9SEU++rQZg391T9p6T3YletEXUco/BA1JhSv3IC1q5ahqjgH5igX+nrs8EWS//TV2LP7DizOTYBak4C8ykpUSlNFmh+NjRb4oIO5sBixI8PIWLoBKxcXI8voQW/nEDxS2YL7mKp84fYfJo/Gih3YnmlHfZcHRZsfxGpjFy73eFG46UModNeh0yEERyru2Si9t7zfLKDtci88yn7D1m+Y9EjI9V+4Yh3WrlyKqmD53VL9S+UfrR+p3CUr12PtiiWoLM5GktaJvl5HsOxiXDl27SiCIWkJ7lgUD5c3Heu3rERGoAfNlhGpky+tM4Pje0VMKkqKtGg/Vo8+j1xmH0Rle7n+tudqIBSuwoZlFchLjYajpxsOpT3PNP9TmZX2N8P6mbJ8YT5/kbRvMToVi9dtwJrlS7GovAjZyWpYO/vgCozV/2TtVyZGp2HJeql8yyqRZwZG/IkwC1242OEIpc9G+yAiIpoGVUAMBF9cHciNGl0uPxSFKGL6bGSbhtDeGurkXOM66fK9KhnL1qFE24Wzhw7iwPsX4UlfieUFMcoaYdg70W1PQHr62MVRSempUPV2wCI18xnvPwx5/ylVG1Ch78Hpt9/EW0cvw5e1BqsKI9x/31m89frreO1kO7wjbTj22mt4TZpef78RbmUVWUK6Cb3Vh3DgaBP86SuwLD+0/7Dli3D/k7E7nIjS66GCEQZBOi8Y4qTXBuhjnXAoo6v9NQeCo02vnf3gx5rk8pur7sDSeDtqDx+Q6qceXqn8a4oMSroqmF5lHMJ5Kf3tE61QF6zFirxxF9NFxcLbcBQNnmyUJ/fi/ZpBJBTlIUlKmunxFZMX464HH8RDO8qlGkzBigcewoPS/IMfWoW0cedXdUoaopqP4cDbJ9CpycfqpdnQSOkzzX9Ys9D+ZlQ/kZRvKhHkP6lkGYq1HTj21ut44+BJdGmLsLQ0UUmduv3K+ctYvApF2h6cevcgjjXpkJqiUVJnXn4iIqIbMb9vfqAFKy43G6ahdrQ5lQVXuV66IIjoOvYCXnynFu39g7D2NaGhy4uEpHhljakJgg2d3S4kZ6QHn44p/yU/LTUKvV09CAjCjPcfnhFpaVp0151D16AN1t4G1LQ4kZxiVtKnJvhGYLPbYXN5IcILl80GuzRvl+fH/WXf2X4RjX1S/rtqcaHTj/gEU3B5uPJFuv/JBKR1h2NjoVdJAZynBwNaA2IRB0OUAzblOAY8LjidTjjd/tCCD5QBKWY9eutPoaXfKtV/I86cb4ALMRCCwZIBqeYY9F4+jVYpfbD7ImpbvTCnjgt1/A4M9Pahe8AN12AX+rv74dLqoA0mzuz4YqAe7+7bh31HGiC9C2oOSK/l+YPnMf66B9VgE861WGAd7MS5i93QJCUhdIRnmv+pzbT9zbh+IinfFCLJf1RUFPzOIfQNScvl+j3wIt6UAt5RU7dfA5ITdOi5fAZtUv4G2s6jqX/852am5SciIpq+CcFcRUXFNRPRdImiATlZJgy0tsF1nSBhqvTotEXYuPNe3L/nweCoxcbCGKjUkf/NwdLVDW9yBtLV0owhA6kGC7o6faFEyUz3PzUNNGoNstcpIy7StL3MBJVGDdUsjmx73CPKK/lSaB/U0v5H3dTy2Z1wxeihjzNAcPbAJnVu4/RScOeyS8HJfKBDlM4Pj2esI+5qO4ujlyxKZ14LnZTuHddRd3s80OiiwhwfQbmIcGbHVwiMwCEHG04PAvBhxKoEG7bhCZfh+Tzu4B8fZAHLZZw83yEFpLKZ5n92TN7+Ztr+b7R8ketrbYU7YxV279iMO1YuQnG6cRo/i6KFRjOWP/mPJ27P+EvIP5jPPxER0XgTenm1tbXXTETTZsxBpnEA7e2TDMtNki6q0rB4dQHU7Sfwzv7QqMXJtrGOY0T6utATMCMtRYWY9DTE93ehU+lvzcr+w/Ki45Qy4hKcXsfrp9qvdM5vpptePq8UtIlS8JZgABw9cLqjEZeoR5TLcRs9MOaDPb7CiAUtLRYMfwDtZ3bMXfuPhK/nNN587V2cb+nDsCoZJXdsw6ZSo5I6G+Z3+YmI6NYzW0MSRFeYcjJhHGhH2/Vvw5w8PToeRt0QWuu7MGizw2azwS1Os4kGetDVq0JqairSUpMw0NU59gCDSPcvBv+/Di/kP8TLD8SRyffIROm08LpH78jxwedXQ+V3hkZcpMnlE6CZ7rjIjf4RfxrluzFSMOeMQVKKFiN2D6S3gClVD5/0IpLLNK+YtH4V4dInJR0fj1o6PmP3McXmrsD6UrNymWUoXRs1NpIZJR3L8SNhU5ul43vDZpr/CN1Y5UtmWj/hyhfu86eYIv+ioILf2YfWS7WoPnYA79Y5kZiWErwnMbxQ+UbzN/r+Y+a6fRAR0e2IwRzNKlE0IifLCEtrG0au08GcMn3YCrs3AfkV2UgwmpCavxIl07zdJHjfWFcvolLLkZ9sR1fnuNG/SPc/4sKwGI/0nHjo9XppioFW2q8gjKCnx4aEwsXITTYhMbMS5Rl+9HYPKRva0N3tRmrJEuQkGWFMzsOKTduxNDOSO5bGGRmGW5eA9LRExMXFwRgzFpxMKeLy3dj+5fLbHVqYpX1K/VQpsPMjOSUOLmfo6SfyAyJ0sXJ9SZPc4RV0iDEYpPlYaMf/Ztwk9XtFuPRJ2dHd50JKyTLkJplgSinE0soc6AJOJdi0o6dXSi9ahmwpPSGtFBU5WvT29Ic2D2uWju8Nm2n+I3Sj7W/G9TN1+cJ//hST5F8U1chbdz/u3liKlAQDDKYUZJlj4Bl2SmFiJO3XDsuAB6lFS4L5S8yuQsGE2/nmun0QEdHtSJ1VkvWUSWuSOmjmSSdZX19f8N+5wJ8mWEASi7GiBGg6cRmD/uv8RXqKdAEODNqikFFcjvKSXCRputDcb0SqpufKo/8j4XdpkLK4EGZXC6pre+BWgsaI9++3weFNQn7VYlSVlaC4OA2Btgb0eQSM9PfCHZ+HiooyFKZGYaj+OE41O4IjB/LbOC0W+JMLUVFZjqJMI7wd1Th+wSJ1Fq9TF5MZccCtz0FZVTnKSoqRGz2g5E95NPzABbQOhYKb2LQS5Gq6g+kRl2/S/YcnmHJRljqCy2fbYdMmorQkHv0XL6DbJZcvEUt27cCaihIUpeohRCUhr7gYRUVZ0HTXo3tYqYMp6jei9EnI9e+y9MObmIeyilD9uzvOXKn/4PHp74c/KR/lFaUoTNfD2XQSJ+utoXvWoswoyo9CT10HxPQSJLsb0OJKurLMKW8/G8dXfp9JfnpBL71vtnrsUffjzTT/DnmdSNxo+5PzN4P6CVs+yVSfvysmyb/8hx7bgBNxOWWoLC9HSX46Yodbcer0JeWnH6Zuvz3DUjjXb4MuvRgVZUVIj7Gg3WpEsvLTBDMtPxER0Y0Q1t679po/eWfHZM+r++UMBgMcjrl7xMJcv/9CkrBoN7Yk1OPFtxuu+9tw4dKJiIiIiCgyvMySZo0oJiA7S4++trbrBmrh0omIiIiIKHIcmYsAR+aIiIiIiGi+4cgcERERERHRAsRgjoiIiIiIaAFiMEdERERERLQAMZgjIiIiIiJagBjMERERERERLUAM5oiIiIiIiBYgBnNEREREREQLEIM5IiIiIiKiBYjB3G1IFEWUFWvxjaUqmKXXtxtRVCGj+M/x8JKliLsNy3+ziaIauTu+gsce2QAT65eIiIjopmEwtwCJZjV+ulODiqs6yqIoYM+dOjyeHa4DrYJJLyDNKECvLJlNovlD+Oz2+5A1Bx15c+l/xRdWLlHmJqNBbEwS4uPiEa0smY65LJ9MLH8MT/z9o8ibg/dPu/t/4O8+uV6Zm4wW+uRUJJsTEaMsmY65LB8RERHRQsJg7jYkCCKOVnvwhXf8aBYEZentQxA8uHz2B/j5oYPouw3Lf7MJwghqn34C3/vBC+hm/RIRERHdNMLae9de8+fv7Jhs1NbWKnNzz2AwwOFwKHMfvLl+/1FiqgY/W6VC1FUdZHHQhy+/68OAFJs/uEmLwm4fRtLVWBwDdHX78ZMzfnSJoW0qqrR4Ij8Uw4t2H75+wIfOcfsTdQI+ukKDjfHyqJ2I7v4A/uOUD3W+8J1yMfUBfG7FYmivzt/Qfvzi0LtwxG7ER7csRdu7/xtH7KF1NOl78ZnKEby0/wW0BpKw5s4vIK3nFYykbUFBTABD3W/jjbPHMaDkX1SnY2nVPViWlooYvxWd7fvw5oU6OJX3lEfmPhJ3CP964kxw/mpZlV/Gnjxj8LVofwe/ffstDE4ofyE2LLsL5fHxiMIIhgaO48Dpg+iUyh+ufKN5uFnEyk/ha4+tufb4t/wRP/jhK7Al3Y3PfG0Dmn74dexvD62jWfY5/PUDLjzz1C/REEjF5sf/AZm1T2O46kMoSQhgoPYlPPe7t9DnD60v6vKwdu8jWFuRhVhfP1qP/wEvvHwadqX+5ZG5z6S+jm/+4nBw/mp5D30Xj94RH3wtdr+EH3/3OVjG16+hCjse+SiW5JoRLbgwcPktvPLbF9AyItVvmPLZleWiVoUvbtJg0Ygf35TafftNrnciIiKi+UqdVZL1lPL6CpPWhL6+PmVu7ul0Ong8HmXugzfX73+F1Hmt7hBxwA6sixfxH1JH9o/Nfhzo8KPPK3VyIaA8T43lehHv1vjxYi9QWaxBlVfEYWtoF4ODIg61+PH2CLDVBOxvDlzpJMuKS7X4hCGAHx3z46V2ETHpGmyPFvFWv7LCVEY60NRZjXN2gxQM9eKtw3/A+y3Hca6zBQ6vF6LXhpi0zShSXcS5fmfw3rWCwnuR43wX73T3S/mPRVbuahTEWnGh9nWc6BlGWsE2FIpncWHIHVw/u+JT2Gy4iIOnXkV1nwOpRXejOHAGF62h46NPXo2qqFYc6+wJzl/NOXQBta3HUTOSgkVGG861NGFkXPnTij+OLYY6vHbiRZxs74AubSsWRzfhfL8UzIcrX5igQhSLsfvJb+Ej99yLjdvHTVlWHD7dEnZ7WJtRX30YJ7rjsTinEy//8Kc4cOQgTlRfgnXYA3F4CPrK+1ChPoMTl23Be9dKtz2Cwt5X8Nq5Hql+DchbtxVliYM488Lvcei8A9mbH0Kp7yjOtLiC9Zv/wNdwt7kaL//n7/D+BRuytjyCSv8RnG1zB7NgKN6CFYYGvFPdFpy/mr31NM68fwCn7FlYmT6AE0fq4BpXruzdX8Jdyafxx1/+CodPNUJX+QBWmy7i5OWh8OUb3U+UCruKVTALIt5vlALScPVGREREdIviZZYLiOAX0O4Q0eoKDaZa7AG0SfNtwwIC4zq0fZ0B7O8X0dTjx8tdQI4UtI3ySYFdr7R9zySxaZxOgE/aZ60tgE5rAE8f9uAbFyO7d0nw2zHg6EP/8IgUOLjhsPcG5weGh4P5EwQr6js7kZBWgQT5fihVPvLNQHN3w4T8D3W+i/MD3ejtO4SjHXakxGcqKWbkmqPR3PAmGm296LMcx7F2K7KScpX08PxeK2yuAVg9PmXJRLG6WPicnWizWTBgq8Oh976Lp+ulSpSEK194zTj0s2/iZz+4anr+ZETbC55B9HV3onfQJc25YO3qCM73DTiU+rWg5lwLkqqWIzlYv+UoLQEun6uZsH/LmZdxsqEVXXWv4u1TQ8jIzVdSslBUrMelg/8PF1vb0V3/lpTej5yiUiU9PL/TgsH+Xgw6r9/AYvV6+Adb0NTRBYsU+L35f76Mn77WHEwLV75RwrAf/7TPi68e9OFSRPVOREREdGtiMHcLcngCyiupS+wHdOrIO7x1HX7Y0zX43iYtvrhYjd0pAqJn8UEU1q4L6DWUokgvNb6EEuSoLqGhT8rkOG7vsPJKeu1zQ63RQRXMQxS0ah1KVnwDn9/9ZHD6aEEyBI1WSZ+59q5zGEm7H4/e+QnctWg7lqaYoZmlfQuCF84+KTiRA5Tx0+BYeWdq4PRJdKUsQ0WKVL+FS1CgqsGFCxMDV/fw2CXDwy4XNLroK/Wri9Kh8tGf4Ov/88fB6dNb0qDWRs1a/TafPg5X5WP4wuN/jb0f3ou1lRnQ3sC+PR4Rlggu/SUiIiK6lTGYowmGpcDq7w548UybCKtKhV0rtfibollsJq5zaLCakZ+ehNTUYmj76tAyFntGwI2G8/+G3x0KTU8f+gn+83xdhCNj4Xn7XsHTb/8njrS3waXKwtLln8aeQrOSOjPyZZa7vh4KkiZMj22YtWAJA8dQ15aOkiWpyKqogq7+NBomxsphDOPin8aNGn7/7/GTP56Ytfr11P0G//ZPP8T+E5dh1xZgzZ8/iT/fmqGkEhEREdF0MJhboGap638NQeq0e1wBHGny41fVXvzLZREFZgExVwUban0S9LrJOvjipPkTBDvqO9thTl2HSnMsWrsuXRMoRGnHHmgfpYmC3+tR1nHD69dC5R8IXd4oTTafAE1o1VkhCCr4XM2obzqAt8/8Ei82DiHVnH/V6NHk5ZvazC6zvELKy+T1O4hz5xqRWrYbS0ri0HD2DPxX12+MQXkFxMTGwusZuVK/HncUVN6eK6OGQ8MqaKaTtzAElRrewTqcf+d5vPbb7+DpgxZklpRDN75+pygfEREREY1hMLcQjQBWrYBlKSpkGwRkRUfW2ZZ/LDwuRkBKrIBUnbRA6qQn6lXBeYNK6kBL6RtWavH9NRosMglIjxOwKlmAczj4lleIhjvxZ09+G1/6ykNIH98JHzXiwog2A/kpGUg0mJEYLb/ZGJt8qaVxMUqjm9HQd+29VfEZG1CZmAazeQPWZMah19qhpPShpc+B3MLdKElIQXLiUmy549O4M+2qXzNTG0Pve2WKCwZj8gNBYmISYYxNhEknhYCqaMRJQakx1oToYPm1KF3xBB5bvQE5xiQkxBWgONEI9/AQJlyoGKZ8k5m1yyxtdrhi8lBSng9zWgbMpom/lmc9fQpdWWuxKKEOdRdCDy4ZL3nJ3VhRmIO0sruwaVk8uloalZR2XL5kRcGmj6EqPwuphRtx7+e+jl2Lr/o1wihT6H1Hp9SEYDAmihrEJqYgIUma9FKdqPUwJqdK88mI0cjpOiz6xA/xpb+4C4XZaUjKqEBFfjyGrRZ4lV0HhSmf/HuKu1dr8a2VaiRer/0RERER3Sb4NMsIzJunWY6S+ueOGBXuLlPjrkINNkQF8GK33KkNPc0yYciP92yhAC85RY116tF0Ff5ssxafLdFgm1kFQafC+gI1duQLiO7z4+yIgPYhEWmZajxQrMauHBUSR0T8psYXfDT/FepkFK5eDJPtHE4duzzhaYVB7n4Mx1RhRcmdWF6wGuW6TpzosSiJEu8QYlLXI9N5CG+1dY8blYoJPs0SPacQU7gHG3Iy4evbj/0XGzEslU3+fTzrYAt88SuxumQjFqelwtP9KvZdbsX/396dwGdRHXof/0+SJ/sOIRCSELYAYVPZFwVFccO2VsW6tLXrbf100y62au+rvdVbW1ut3tf63mu9tYsbLlXUKuKOICKCLGENkoWQkH3fM++Z55lAwpYEBDLk9+1n+sw5JzPPmZlHP/P3zNJs2h3O0ywnpo7XpIxp+6eJqdHat3OLKpSmufO+rYWjZ2hSUoLZ/qEaO3yGJmdkyVeySrmN7SqrrFBCyhxNH322zkjLVEzTBr29ebUq3Ef3+3W3fSdadbHqEqdpzkWXavbZ52lSbJ7e3xh4SItfY5kisy5Sxr5X9dKavE4jc1H+p1lqywpFnvM1nT9zuFq2P6+lr2xWvQlIzv6t+HSn2jLmad7CSzVlYoqaNj2pF17bbn5ygXU4T7OcOmWaps0+d/80dVqcCt9Yq1KN0sKf/VKXn79A00YPlBU1XJPOXqDpc6fKt2OZcirbtS+/VIlnXqR551+iGdOc39BqvfL8cpU1ddq/3W2fL0hXTApW+N42vVzu1gEAAPRDvGeuB/rKe+ZOF7adonnnfU1xO36vpQUHxvxsO9H/nrlBn96llwp6daMXOrHt4brwtls04I2b9MTqA6N+tj3I/565IStu1JMfHv5pnl5gDwzWQzOD9NqbzXqxvlMIBAAA6Ge4zBInX/x4DQ/P066iw19eaLmjQDhGGdM0Jm67tm50HvF/KOe+SC8bmhikqKp2raxzKwAAAPopwhxOusFDxii6fKtyutwohc/K0EmTFbtrvbaehmHHua9zdLylnXvaVerxUAoAAHC8uMyyB7jMEgAAAEBfw8gcAAAAAHgQYQ4AAAAAPIgw1wNcYgkAAACgryHMAQAAAIAHEeYAAAAAwIMIcwAAAADgQYeEufDgcP+7nKKiotwadLDt0brwF3/UTT+7WQsnDHRrAQAAAODk6xLmwqwwJQYnqri4WKmpqYqMjHRbELBbKx69T0vXWzrjmss1xjrkFX0AAAAAcFLsD3M+26cBvgHKz89XeXm5/zMtLY1A14lltaiueLd2rN6ostBExbFrAAAAAJwi/jAX0hKipLAkf4Crr6/3NzifBLojCA+XT01qanLLAAAAAHCSBQVZQRoSO6RLkOvQEegyMjJkWZZbC4WGytfepJYWtwwAAAAAJ1lQu93unzk4yHXoqHceigJXZbmqlaRBKWGy2C8AAAAATgFeTXAsqt/Wa681afrND+rW3z6sW2+YqyBCHQAAAICTqEuYy8rKOmTCYURO1/wFcdq+5Pf6833/of95Ya3auQwVAAAAwEnUJcxlZ2cfMuEwBqYqKSRf21dvU1FRoUoqGtwGAAAAADg5uMzyWDS3qjXIJ1+wWwYAAACAk4wwdywa69WsCIVFuGUAAAAAOMn2h7nD3S/XMeEA2w5SzLA0xbbXq4GrKwEAAACcItbMRTMPeQxjWkRan7pfLjo6WrW1tW7p1LHt0bro9p9oWmy1cpc9rMeX71QbDz4BAAAAcAoQ5nrBtn2KTkqQVV2q2ubA+/kAAAAA4FTgnrlesKwW1ZXuI8gBAAAAOOUIcwAAAADgQYQ5AAAAAPAgwhwAAAAAeJAnwlxfePgJAAAAAPQljMwBAAAAgAcR5gAAAADAgwhzAAAAAOBBh4S58OBw2batqKgot6bvsO3RuvAXf9RNP7tZCycMdGsBAAAAoP/pEubCrDAlBiequLhYqampioyMdFv6it1a8eh9Wrre0hnXXK4xlu3WAwAAAED/sj/M+WyfBvgGKD8/X+Xl5f7PtLS0PhXoLKtFdcW7tWP1RpWFJiqur2VNAAAAADhJ/GEupCVESWFJ/gBXX1/vb3A++2Kg8wsPl09NampyywAAAADQzwQFWUEaEjukS5Dr0BHoMjIyZFmWW9sHhIbK196klha3DAAAAAD9TFC73e6fOTjIdeiodx6K0mdUlqtaSRqUEiarL/ULAAAAAE4Sb76aoPptvfZak6bf/KBu/e3DuvWGuQoi1AEAAADoR6yZi2baaRFpys7OVlZWllt9QEe989lX2BEzdc3tn1PjC3/RB3m1amuqUElFg9sKAAAAAKe/LiNzTmA7eOqTBqYqKSRf21dvU1FRIUEOAAAAQL/jzcssm1vVGuSTL9gtAwAAAEA/480w11ivZkUoLMItAwAAAEA/sz/MOffFHWnqS2w7SDHD0hTbXq8Grq4EAAAA0E/5H4Dizu/X8UCUvsa2R+ui23+iabHVyl32sB5fvlNtfen9dwAAAABwkngszPkUnZQgq7pUtc2B9+MBAAAAQH/kqXvmLKtFdaX7CHIAAAAA+j1vPgAFAAAAAPo5whwAAAAAeBBhDgAAAAA8iDAHAAAAAB5EmAMAAAAADyLMAQAAAIAHEeYAAAAAwIMIcwAAAADgQYQ5AAAAAPAgwhwAAAAAeBBh7jBsO04TZk9QnG27NQAAAADQtxDmDhI3YaGumpPmn0+bc5UWTojzzwMAAABAX0KYO0jVpmVaUhCrcUPHKbZgiZZtqnJbAAAAAKDvCE7NTL3Dnd8vzhenkpISt9R32Ha65lw1Q3FByZo3b6bGjx+v1KA9ytnXFGiPm6ALLztHZ5n6rKx41W7OU9ycqzTe2qz8KuvA8nt2al+TKTt/PyVcOfkHApv/b2ZKH7y4TuEzpyh8Z56qLMttBQAAAIC+wYMjc7EaG1ugJUuW6OnVexQ7drzSbTsQwi5IUeHrS/xtSz6Uxk6MV25BoVJShwUWHZaq6GopJS3eX4xPS5Gqu468WVaeVi7bZAJclTYtW6k8ghwAAACAPsiDYa5aWzfnBmZzC1SoaMU62Sw+1pnTuIWLddVVV2nxjKGKjY2TqqpVHR3rf5jJsNRoFW4tdNKcKcfJyXKF+ZWBdQEAAACAh5xm98wVavXTTwdG5sz0zMo8qTLf1KYoLX6YUqMLlZ/rlE24i08ztaZMlgMAAADgQadPmKusVq2JZ86llZ1ZVpXyncG4GWMVXZjvv3wyvzBaqeNjnWE57ocDAAAA4EmnTZhz7nV7//Wt0tgL/JdZOtOVs9P9bZVOmvNnt8AwnFOOTonmEksAAAAAnmXNXDTzkDdjp0WkKTs72y0BAAAAAPqa0+yeOQAAAADoHwhzAAAAAOBBhDkAAAAA8CDCHAAAAAB4EGEOAAAAADzoiE+zzMnJcUsAgBMtYthQd+7wGnL3uHMAAAABjMwBAAAAgAcR5gCgj7vjxh/onnvucUsAAAABhDkAAAAA8CDumQNwUtmTvqafXDE5UCh7U3/74wvaZ1n+ou2bo8W3X6V0f2mvVj3wG60sC7Sd7g6+Zy4ytVaXT2vU4LpIxYz6ub/ulltu8X8CAAA4GJk7BrZtK3O4rZ9NtJVk5k83fX37+n7/LE29eJwevSFJqcfRv+DEyZp79Y80L/PkbqNtByvt3O/p2qtnKe5E7F8rRMFVq/XCQ/foL39/S2VutV/rOr3m1P/3v7Q3OFiWx/4NNWDO13XForkaHH58+80aUqEHf1mo715WYQJds1sLAADQVb8Kc04IuGymrR+kHP5E64wJtv57ofzT/7vA1tygI5+QxUZJyWaKcMsnk51o64F5tsYe44l2T5Y/ldvXEz3t39ixZlvNcT25LCUOjNSw5DDFuDW9FZp+qa777mINrV6j7Z0eYmj70jVl8U/13X+/Tzfd+n90zeenK+Gg36mdeb1+dOs1Sj/mIBasyAGDNGBAgsLdms9ce50qigpVVl6jNndUzmHZ9aou3qvS4hq1unVeUrV1jfZGz9fV3/u6xsYe+4hi8uRajQkJ1psPD9c5v45zawEAALryhznnssrOk2PkyJFdpv4ge5t027u2bltja59bdziWOfn8aJOlH39gKa/Tiejpoq9vX9/vX7uW/W2tFtxToC3H0D/bl6nzrp6vpjfv19OvrNDeusA6nBG/9Au/qXOS8vTWY7/TP55crtqRX9Lnzknxt39WLKtZ2575dz340Csq7oP7ty9rLduo95+4Ty/tHq6LrpirmGMM1CEhznIhKigMVjvHAAAAHIH/njknwGVnZ7tVh8rKyuoT99A5I2ufmyWNMEmrbrB0Rri0t0T6301SoTnRddrN+ZNSPpX+qzBwAjR6jK0fhkrf2xhod5YfbpavTz6w/KObzadZvoMdZevO2dLyN6QV7V1PpJyRnpvTA3V2ra073jfLdjrZsoNszRsrXTRI5kRO+rRI+vt2aV+n9R+N7bN15SRpTpwUacrFFdI/NkrbW03/k2z93zOk0INO7uxKW7eslipNvW1OAi/NkuYPMMu3S7vM9z+2VSpz2nqw/IncPjvSrG+OtOpdaVlT4O+DEm3da7b30XekTc4xDLZ1vun/woFSRJu0Y4/0t52Bvjm67V+orS+Z9c0y+6+2Unq3QVoUJP3AhL/u2INT9cz3I7R2V5wuSa/QPa/YuvGqRBW+mq1vv14n23yPHRWjb10zQleMiVBsW7M2rd2tXz1Tpj3u9s+4eqoeOjvMP6/CXF15V74+dftn26H6zi+mauKmHNVNGqa5ie36dEOubv/7Pu3u9DvznfEtff/8Cj3x+yVdf5d2nGZ859caseHnenJVnb8uZsLlmp+4SS+9s13t476qm6+fdujxzXtBf3p4mWpMffrn79IXwldoTdQszUgPV33Bh3rj6SXKqQ4s47RfMz0wEmQX/0uP/PElle/vf5Lmfv/flbL1aTVlLdLI+FaVbVmqpc+uUoXbfztshOYsvk5TR8SqMXeZ1tfM10z9Qw88e+DfL/bkb+mWc4v15/te8P8uD8cOma2r75ivPX+8S++XHP5vDseOHKXZn79CZ4xKVnhblQo3LNWrL69Vlbsfu9v+7vpvR2Vp/uIrNSl9oMKsBlXselvLnnpF+e7vuYMdM1/X/3SWdv3xbq3q4T1/ne+ZS1hQoKXXtujZ/8zQfTst/9MsHdwzBwAAOvPkZZYZJkhsM+dWv/vEhLpE6bpUt6GH0pNMONpilt8gNZjQc20vlt9pgoUzenfHtkP/i7sTFkePkq4258IvrZd+a9Zfb/r69cDTHHpk5HDpvBATUD+U7vzIBBwz/6VhbmOZdPdKU7/ZVmOzrcfeN6HTTL8y31Ntmp3vP8sErfN90tPrpHtMfa35/i93bF83yztO6PaZ/LGpXhpv9n+H4WY+xPQr2wRPZ/1jzPovj5ae+1j6vQnZPtP36zs9F6K7/p2ZKZ1jtv9xs+8eyZeyzPHtlchwVb67Xc/VJekbw6t068t1yjpnkCaaJmdk7Lwrx+mayHL94eGN+vqf96hqQqZunWO+0LXupQ36wp1rtPgFk8KPYNy4SK1ZslnfeqxYTRNG6mezDyzvGJRiNjp/V5cgF1CjiooGDRp1hqKtwPbXbHpeS9/d4Q+aynlRf33wbj3ywidqql+nVx64S4+Y6c9Pr3J2/X4hI7MUte4veuKRx7XDN1OXXjxFPrPvHHte/70evvdOPfLqDn/5cAaPTlHu0gf1xFMr1TLmal0wJdZf7+yflPO+rNlJ+XrnsQf18voEjRjVddtOJOdev9GXfltTIzbrjb/dp388+YYax16nC6cF+tfhSNvfk/4PnbdYU8I26OX/vkuPmuVzwubp/LM7/gHtpHqn9lQMUXLqsf0rtt1/ONrlM//8AwAAHIknw1zxXum9Sku5ZZZeMvPDEtyGHiotkt51l3/RLJ8R7zb0QGurpZJGM7W4FQeZYMLDlt3SSrP+/ApLT28332fqg9yT5e7EhJrvMIFnS420t9rSkjWWfpUTOKm32i0V1lkqaDAFs7qyWnPybcp7TH+cS7Gcyw/XbbJ081pLH7nf/06J2T+BgZZul3ecyO1z+veJ6c/ogVKY/+TZ1mQzn23qOr7fCV9bzfpXVwWOzwvmWGWawN6hu/6NNNvq9O9Ds/ynxc7vxG3oqdYGbd5epVW5rSoqqNB6cyAKw4Pl7ELLBKi3HvtQCx7I1+s5ddq2o1jPZLcqKyMqsKzRXNes/JJmFdSZdHoE+R8X6JkddcremK+/bDABdphJr52EhYerucn8CA7iXL65c/nz2jNksb55001adOHZGhZ/4GzfaqlUmXO/WaU5wHa9qpx70ky5rKK2y6V6QQWr9NbHOSouWK933tuskGGjZDK5X1t9uaoqSlTVcOSHblRsek2ffFqgom0va/WWFiWnBS7NluKVkTFQez54Vp/szlPBuue0aY87SnkSWFabdi75mR589CVt352vfbtWaN32Bg3e37+AI29/9/2PiIxUW0WecguLVF7wid7+n5/rf5fnua2d1ZtjaJlj2fO7Tm27UZdds08/+XKxfnNJg9rKo/W++S0DAAAcSZcw51xOefDUF9V3OpGvM/O+4J6HJcfBy4ea8+HeLH80UT6z/k5PbigvtvRI7oGw1J2tJlw6o2l3z5K+k2Xr/CTbH3x6Kj7R1o9m23rgPFsPLbD1w9TA/vmsHO/25ZjgVm/C2QTnl2fOc7PMtMlJg64ocyw6r7/eZIow8509PT4md+1f3gmPzvE9bp22LTkrXQ/dPk3v/mGWVt0/Sw/MCTW/n979N5HqhjZ3zvS1qVXhvq77zj/KdgR2+So984df6fn3dqpt6Hn64g9/qrPTQ93WnmltqN3/0JG23He0bPk6VflLPdPYcGCcr7mpUSEhHd8fo/BIW/W1gXFey2pVdU2tf/5kicn8ghb/8G796I779eM779dVU+MUHNx1/xx5+7vvf96GtWrIul7f/v4P9YUvXq6p44bsH9U8rKMcy0O1avr8Sn3h3GpNjLe0dXW0sp3/8AIAAHAEXc5CnfvmDp5wcjWVWbrzfenZPVKlCSbnT5JuynAbu2Fbtq6cLIUUSX/4ULrrA+nvxW5jH9FeGbikcmKCFJckDTVn0es/i8B1EthB8frBDebkfd0O3XjvOn35nnW6a+0J6Hx7u6ygIwdEq7VMuWte0it/vlvPrg/T9AXTexX4O7NqdmnTxztU26vQcWSf0WqOiR00UfMWz1HQpif05J/u0V8eukevbapxWw/v4O3vrv8t25/S/97/J739cY5qfMM09Us/1dXnDHFbOzP/8Jp12e0Hgnt3LCtav/y3TM355gj9+J0Qjb+45MAl1gAAAIcRZDlnHEZY2OEvhwoPDzyc3Bnl6CsiO93G4owUNbceuEyv1pxbR7hXnjmX8UWHmrqDrhg72vJ+5rz42E6NpTqzrshO97kMSrH1veF2j0eWnEv5Whuk1fmWntxo6cFPpeHuZYn7OSeJ7mwX5hAmm+9ekyftrrVUUGv6c7hzySMt3wPHu30yQW5juTTOBLlJZrtyTdjsHCQOXn+kOX5N5pj2dOSvyay/Y3nn+DvH9zOTEKXhETV6/Y0KbSps1I7CBlW1925Urifq62oVFpOgkIP2qW2N1uyvXK+JiYF6y2pR4Z5iBccmqOuFmvYxH9/j06CmRkvhEYFLC5170CJ6cZnhcYsbogHhBdq2YoOKnMtNi4rU0Nbpx9St7vvvhOzWyu3asvJlvfHU/Xr2vVKljM48zOhcvKJjW1Rf2+SWe85qD9bGXGc0sU0xzlOQAAAAjiDIOe1ra29Tenq6goO7Xo/nlNPS0tTW1uY/Me4rkgZL58TbSh9ga5GZz3Pvi3IC55ZSE37SnadB2hqeLF1sQsO2TpfxOZKHBJYfZpb/nJnPPfi+qkap0mzueNM2KNxWkpkiTcjyh8OwQDnJCQkmX8Sbcz2nHO2+62tzmZSVIc12+pdg68qRJlyYQNWTMOKsf9Zk6TdnShNibQ2OtjVlgDm5N+GuSx4154fV5vud+82GRtlKCXWPjakvNmFozggpwyw7LlVacLgHgBxh+RO9fY6O++aiTb/mxJtgd9CxyTbrH2vWP90cP+f4fN4c322mztGT/u00x3Kcu7xz/M/uxf2Q3aqs1+6GWC26dIAmpkRp1twRum60u+8N5+Q/PjFUaUmhSo0yIS8kRIMHhfnL8f5HzfdMSc5ONQybpLEHbsULaC9Vc9hZOvuyizQqNUWDMmZowazRqsvPUZfHrdTUqD5imEaNGaYB5sc+ILbrZYZHYtshCo9PUlyCmSLMMsGRikkcZMqJCu9R/8tMuKzV0LMWamhksMKGnqcJGT3f7uNWVaSyxmGasGCKhiSnKmPa1Zraq7eqHL3/ztNIx197r268/gINH5qshCFjNSYjXo1V5Ye8Ey94+BkaGb5LebuPfO/k0cSEO/8VJkh1XGYJAACOIjg1M/WOmrYaWW2WEmITVFV14O4ZJ+A1NjZq7969bs2pNybNnMObMBBrTti/aMJKiznRdx5db7bA3+50v8acBC8abQKbCQx5u6UnC00YcsOGs3yQWT7OLH+5Wb7ZLP/XTsv7mfOvInN2Nm+UdJnzdMlhpqpI2moS1eI50tdHWpo/0JIVamnWMEvnmfAYatazuclSmQkT5nxfl5hAda4JIrXFZv2fSnWd138ETtDZY5YflGL6b773/KFSggleT26V9prjs5+pqzMhZqHp34UZlmaHSa/sc8ZYLe2ulyaZ/lxsplEmT6w0+2O8yehO+35HWN5xIrevQ6sJy5nm+GSafjydY4Kle2yc7S8162+OM/vdrP+cQVJpgfT3XJOv3b/prn97zfIxJsBfYvbf5HBpXa3ZD2a5f3Xe/iOJjtXi2SFavaxcbROG6oyavXq5PGZ/XZ7dqOySEJ0zL01fO3eQJgVX6KX8SM30VerR9WajFKMf//JM/erCobpqrNnBUbG6ZP5QfWneQEVsLdSK8hBNPduEsNwC/Ss/EBJSxqfo4tAKd/mA9vK9as+8TGePaVZO9m41uI/9tyzzz+KuQkVmztes+RdoymTzw8x7TS8v/VA1nX8fNcWqT5iiGedfpJmz52lCTL4+2Gx+wEbc2AUaF7xZH2Qf7vrb4Vpw0y267Nz5OmvUAFmRGZowe76mzDpLITvf0K7KKKXPmKeYgteUXRgIKbGZ52q8b4t//c6ocsXeCg2c9jktWHiJpmbWKbcgQYPaNmj1FvMPXYfBUzR3eJ3WfbBNDe5xPURQmibMz1DN6veUX9+DY2dYdrH2lsZo5KwLNWv2dA0N2axNBYOV4dvWo+3vrv/OA1ZK8ksVP3mh5p67UFPPmqCYmjV6felbKm8+0Meg2ElaeM0iRa5/XK9nVxz1HsjOfPEHnrqZNKFKXxwjffJ2vD6qMr/3aTP89cuXL/d/AgAAOPzvmXPnNTB4oOpr6lVcXKzk5GRFRET0qSDnjMw474nLyJMedN8jB5yObF+6Zl3/Hc0aVKbVj9+rlfne+b3bVoii4qLUWl2plM/9Rov0mP7rn1vdVtPuvGfuyolqazeBsOxN/e2PL2ifG3hs3xwtvv0qpctSUHCxVvbyPXOfhe76fzQxZ35VX7p0gprX/1XPvLxBdXbP+975PXMRM/fqpW/VqDE3Ru9+EKeIUT/31/OeOQAA0Jl/ZM6dV6P534CoAfL5fIqNjfUHOSdA9SXOyFpClbS6hjCH05fVXqX8de8qe2+b7MZ8VdR54/fuXKoZEZ+gUCtYobEZypo9S8G7XtbGvAMjj6rcpW0bPtD6Ne9r/frtqmhoOjB6ZZepIPsjbVyzQus+/Ei5pXVq7UUgOl496v9RhEb6VLpqid7+uEDNvRitdnQemWvJj9CnkY2aPr5eZ8aEa1fjPH89I3MAAKCzLiNzjlArVMnhySooKFBTU5Nb2zd0jMwNz5MeYGQO6HNsO1MX3fZ9nRFlqb21TuU7l+mVJ5drb4tXwuip63/nkbmD3XHjD/yfjMwBAIDODglzjrSINOXk5LglAMCJRpgDAAC9RZgDgD7gaGHO0ZC7x50DAAAI+OxfkgUAAAAAOOGOODKXnZ3tlk696Oho1dbWuiUAAAAAACNzAAAAAOBBhDkAAAAA8CDCHAAAAAB4EGEOAAAAADyIMNcH2Xawhl1ws264bq7i7EOeTwMAAAAAhLneskMzNOPa2/Sjux7SLXfepa9cMUsDgrsGLnvcDabtK8o45iDmU9TAZA1MSlSEWwMAAAAAnRHmesG2LWVc+l3NH7Rbrz9yt/7yt9dUO/p6XX7u0V/221uW1ajsJ27Rvfe/qCLLcmsBAAAA4ADeM9cLth2nOT/4nUatu1l/XRHoT8ykq3RB0gb9c/lWtU34pn5+wwyFHRTA7NzndP8Dr6jG1Gdc8TtdGfGuVkfN0exhEarLX6Vl/3hC26sDyzjtX5kV75+3i17Sn373T5W667PtQZr/419raPbjaprweY1KaFXZ5n/q+SdXqKzd/ZvwUZp37Vc1fWScGnf/S2urz9Mc/VX3PrXR3340th2pUXPOV/y+T9SSPE6DItpVV7xFn2zKU70Jsv6/CUnUiPETlZ4ULZ/dpMrCzdqcXagG00c7KlNzp8eqrDxRqfH7tGl7uzLHD1FDzip9uKvKhFTzN8Gxysg6QxnJsfK1N6iiYJM2bytSY8c2HmX9n0W7w/YF6fvzQjSxsU3/8V6rCjq1AQAAAF7ByFyv1KisrEGDMs9SjBXIwDUblui5N7ap3QkEO57To7+/Q396bp2a6tbqhXv/j/5kpof/8Z7q/H8d4Bs9XlFrH9FjD/9V20Ln6HOfn65Q95LM/Ffv0YP/eZv+9Mo2f/lwUsYM1e7n79Nf/7FCLeOu00Uz4vz1zsjh0Au+prMH5emNP/9BL3ycoNGZof623ohLilFF9kqt/iRXbYMma1xq4GJPZ/2Dxk1XRmiRtq5doQ/W7VDzoDOVld7pYtCQCLXkr1Vuc6oJm6Vav7NKcenpcnroLJ+YOUMjI0uU/eE7Zv05ah0yRRPSw/yLdrf+423fL8RSvPnK0HBxGSsAAAA8izDXC5bVru3Llqhg6LW68ZZb9IVLz9WIxBC31bQ3V6ikqFD7KupNqV5Ve/f4yyXltYGw5wrKe1+vr9mhory1euOtjfJljFay29ZWV6qKsn2qqGt2aw5VtuFfWpuTp73ZL2jl5hYNTkt3WxI1YkSSClY+pXW7divvo6e1viAQlHqjbm+O8iuqVVOyTbuK2xQbG+Ovt0yALdn4qt5as03FFVWqLc9V/r4WxcXG+tv97FpVlZWqrLJZDTX7VFVSrgafTz5/Y4ySknwq2ZWtkuoa1ZTtVs6eBiUkDvS3drf+423vYDW06bevt+inb7dqB6NyAAAA8CjCXC/ZpSv0xH/eriVvb1db6vm66se36bzhvRv9am2oUZsbIto+fUsvv7pWlf5SzzTW17hzUlNTo0J8HYEtRhGRtuqqq/wly2pVtQlNvdXc3OTOSS1trQoOCnZLUujALE2Zu1ALLlik8800NS1CQUHd/4wCWxui4OAQDT7zMv+yzjRreIyskBAFuSOT3a3/eNs7NDfbKm0lyAEAAMC7CHPHwGot1a4P/qkXH75DT30cppkXzFb4MT650qrZoQ1rtvnvp/ssnMiBJjsoWZmTMxRc9Ik+XPW2Vq18W5v2NrqtPdWi4uzAss60cuWben9zoX/ksrv1H287AAAAcDohzPWCbY3ROd+4QZMHBIKbZbWooKBIwXEJClyI6DLB7tii3fGqV1OjpYjISH/JuYcs0p3/TITFKiakSoWfFqmmtla1tTVqtQ+M2nWvVW1twbLa6lRXV+ufGtssBXUE0O7Wf7ztAAAAwGmEMNcb7aVqDp+qcy+/VGPSU5U8YrYumjtGtbk7VOb+iV91jeojMpQ5briSBqcoKS7cbTg62w5RZOIgJQwwU1SoFByl2IHJpjxQESE9iYelKsivUeq0i5UWGaywtIWanNHutn0GGmtU2xan1FEpio2O1cC0yRo2sDextUYlJU1KGjFRg+NiFJ2QrnHT52lcsnuZanfrP952lxNyL5ru011Tg5V4zO8CBAAAAE4twlwvWFaZVj/xP9pkT9fF37pV3/j655Vc9E899eLGLg840Z639eZHtiZ+9Rf67k/u1NcXjXcbujNc87/3a33/F3fpu5eMkZV0rq4389/7+S2a1/GMk6NwHtCyc/mT2hK+QDfc8ZB+/JU0VeQe+UEqvWXZRdrxSa7akydr+szZGptcr6LiVre1e84DSsp3fKgdNQkaO22eZp45WuH7PtaG3MCzPrtb//G27+ezNCnJHK/qdpWfyOtSAQAAgBOI98ydhmwrRNEJMWqpKlfqF+/T5XpEv1/Sd47nqWYPDNZDM4P02pvNerGeMAcAAABvYmTuNONcqhmVkKhQy6fopIkanR6psn3FbiscQxODFFXVrpWdX/4HAAAAeAxh7rQzSuf9MHCp5o0/+oZGVDyvZStL3bbuhcWGa/yVZ/g/T8eybdsaHW9p5552lXKJJQAAADwsODUz9Q53fr84X5xKSkrc0qkXGhqq5ubP7t6v05lllWr720v1zrKlenf5a/poXY5q2nsWWmJT4zR83mjlf/Cp/7OpuuG0KpdkF5n9Yyl3T5verXA3GgAAAPAo7pnDfs4I1s5lW00IavSPZI1aOPa0KjufAAAAwOmCMAcAAAAAHsQ9cwAAAADgQYQ5AAAAAPAgwhwAAAAAeBBhDgAAAAA8iDAHAAAAAB5EmAMAAAAADyLMAQAAAIAHEeYAAAAAwIMIcwAAAADgQYQ5AAAAAPAgwhwAAAAAeBBhDgAAAAA8iDAHAAAAAB5EmAMAAAAADyLMAQAAAIAHEeYAAAAAwIMIcwAAAADgQYQ5AAAAAPAgwhwAAAAAeBBhDgAAAAA8iDAHAAAAAB5EmAMAAAAAD7JmLpppu/P7pUWkKTs72y31HfGZI9y5w6vcvsudAwAAAIDTGyNzAAAAAOBBhDkAAAAA8CDCHAAAAAB40CFhLjw4XLZtKyoqyq3pO2y7UZddU6IbF1Vrcuwht/oBAAAAQL/RJcyFWWFKDE5UcXGxUlNTFRkZ6bb0Fa2aPr9C136xWA/eXqJpPgIdAAAAgP5pf5jz2T4N8A1Qfn6+ysvL/Z9paWl9KtBZVrRu/7eR+rdXwhQ0oEbzR7oNAAAAANDP+MNcSEuIksKS/AGuvr7e3+B89slAp2Dt2Oszc7ZCQgJ1AAAAANDfBAVZQRoSO6RLkOvQEegyMjJkWZZbe+rFRLaa/w9RXV2gDAAAAAD9TVC73e6fOTjIdeiodx6K0leEhTh9sdUW6DoAAAAA9DuefDVB0eYobW9q0aVfK9LPr9+nnyysV3QfCpsAAAAAcKJ1CXNZWVmHTH1RW2GMXt0Sqsi0Gi06r0pfmNasCLcNAAAAAPoDa+aimXZaRJqys7PdqkM5oe5o7SdLfOYI/2fcvAIt/UqjPngsQ7e9G6wWBe7nq9y+y/8JAAAAAKc7T15mGRXZbjoeol27DwQ5AAAAAOhPPBnmahqcbrcpKjxQBgAAAID+Zn+YO/heuc5TX9Pc5nTbVgRhDgAAAEA/5Q9z+Q35XSaHc49c56kvsO1GXXZdsf5wWa0phCq/yG0AAAAAgH7GY5dZtmr62VUaFxamd59O0pPFbjUAAAAA9DP+p1m68/t193TLU6XjaZZHwtMsAQAAAPQXHhuZAwAAAAA4CHMAAAAA4EGEOQAAAADwIOvMKdMOuWdu1IiMPnnPHAAAAAAggJE5AAAAAPAgwhwAAAAAeBBhDgAAAAA8iDAHAAAAAB5EmAMAAAAADyLMAQAAAIAHEeYAAAAAwIMIcwAAAADgQYQ5AAAAAPAgwhwAAAAAeBBhDgAAAAA8iDAHAAAAAB5EmAMAAAAADyLMAQAAAIAHEeYAAAAAwIMIcwAAAADgQYQ5AAAAAPAgwhwAAAAAeBBhDgAAAAA8iDAHAAAAAJ4j/X8Ll+R2tvvHPAAAAABJRU5ErkJggg==;" vertex="1" parent="1">
          <mxGeometry x="180" y="100" width="883" height="467" as="geometry" />
        </mxCell>
        <mxCell id="Q4NVvnGR27nj_l2IsHml-11" style="edgeStyle=orthogonalEdgeStyle;rounded=0;orthogonalLoop=1;jettySize=auto;html=1;entryX=0.5;entryY=1;entryDx=0;entryDy=0;strokeColor=#FF9999;strokeWidth=4;" edge="1" parent="1" source="Q4NVvnGR27nj_l2IsHml-2" target="Q4NVvnGR27nj_l2IsHml-10">
          <mxGeometry relative="1" as="geometry">
            <Array as="points">
              <mxPoint x="210" y="200" />
              <mxPoint x="210" y="440" />
              <mxPoint x="355" y="440" />
            </Array>
          </mxGeometry>
        </mxCell>
        <mxCell id="Q4NVvnGR27nj_l2IsHml-2" value="" style="rounded=0;whiteSpace=wrap;html=1;fillColor=none;strokeWidth=6;strokeColor=#b85450;" vertex="1" parent="1">
          <mxGeometry x="240" y="180" width="150" height="40" as="geometry" />
        </mxCell>
        <mxCell id="Q4NVvnGR27nj_l2IsHml-3" value="" style="rounded=0;whiteSpace=wrap;html=1;fillColor=none;strokeWidth=6;strokeColor=#97D077;" vertex="1" parent="1">
          <mxGeometry x="270" y="360" width="50" height="40" as="geometry" />
        </mxCell>
        <mxCell id="Q4NVvnGR27nj_l2IsHml-15" style="edgeStyle=orthogonalEdgeStyle;rounded=0;orthogonalLoop=1;jettySize=auto;html=1;entryX=0.5;entryY=0;entryDx=0;entryDy=0;strokeWidth=5;strokeColor=#97D077;" edge="1" parent="1" source="Q4NVvnGR27nj_l2IsHml-4" target="Q4NVvnGR27nj_l2IsHml-3">
          <mxGeometry relative="1" as="geometry">
            <Array as="points">
              <mxPoint x="420" y="270" />
              <mxPoint x="310" y="270" />
              <mxPoint x="310" y="360" />
            </Array>
          </mxGeometry>
        </mxCell>
        <mxCell id="Q4NVvnGR27nj_l2IsHml-4" value="" style="rounded=0;whiteSpace=wrap;html=1;fillColor=none;strokeWidth=6;strokeColor=#97D077;" vertex="1" parent="1">
          <mxGeometry x="380" y="140" width="50" height="30" as="geometry" />
        </mxCell>
        <mxCell id="Q4NVvnGR27nj_l2IsHml-10" value="" style="rounded=0;whiteSpace=wrap;html=1;fillColor=none;strokeWidth=6;strokeColor=#b85450;" vertex="1" parent="1">
          <mxGeometry x="320" y="370" width="70" height="30" as="geometry" />
        </mxCell>
        <mxCell id="Q4NVvnGR27nj_l2IsHml-14" style="edgeStyle=orthogonalEdgeStyle;rounded=0;orthogonalLoop=1;jettySize=auto;html=1;entryX=0.5;entryY=0;entryDx=0;entryDy=0;strokeWidth=5;strokeColor=#3333FF;" edge="1" parent="1" source="Q4NVvnGR27nj_l2IsHml-12" target="Q4NVvnGR27nj_l2IsHml-13">
          <mxGeometry relative="1" as="geometry" />
        </mxCell>
        <mxCell id="Q4NVvnGR27nj_l2IsHml-12" value="" style="rounded=0;whiteSpace=wrap;html=1;fillColor=none;strokeWidth=6;strokeColor=#3333FF;" vertex="1" parent="1">
          <mxGeometry x="400" y="280" width="80" height="30" as="geometry" />
        </mxCell>
        <mxCell id="Q4NVvnGR27nj_l2IsHml-13" value="" style="rounded=0;whiteSpace=wrap;html=1;fillColor=none;strokeWidth=6;strokeColor=#3333FF;" vertex="1" parent="1">
          <mxGeometry x="410" y="365" width="80" height="30" as="geometry" />
        </mxCell>
        <mxCell id="Q4NVvnGR27nj_l2IsHml-16" value="" style="shape=image;verticalLabelPosition=bottom;labelBackgroundColor=default;verticalAlign=top;aspect=fixed;imageAspect=0;image=data:image/png,iVBORw0KGgoAAAANSUhEUgAAAucAAABSCAYAAAD3n3onAAAAAXNSR0IArs4c6QAAAARnQU1BAACxjwv8YQUAAAAJcEhZcwAADsMAAA7DAcdvqGQAADJZSURBVHhe7Z0HfBvHne9/i0YQAAtIAuy9SBQpqotWs7qsuMaOk9ix4ziXvORKci/lEr93Ti455yU+xSm+5C6Oz3FcUpzESVxiO66SbMmy1alGFYq9kyBBgihE3TezWJAgRRIgRcqg8v/ysx9gd3Z2p/xn5jf/HSyFiooKEQRBEARBEARBfOAo5E+CIAiCIAiCID5gSJwTBEEQBEEQRIxAy1oI4m8QccnncP+dy4I7ljfw+EN/QrcgSLui5lrc9cCdKJD22rHvh9/Bvt5g2N8SohiPvM2fws71C5HS9kc89MQ+BOQyIgiCIIi5Yt56zkVRxMJSNb6xVAET+361Eev5i/30CVh90xL8+rPpyL2M9ClTl2LTXV/DtvIrm0dRVCJ/+1dw713rkTQX5atQQTnwHv748Hfw2JNvwiIflvAewcv8+H+/hA6lGop5pkdNGz+POz+8EZnxl1luGTtw44cy0fHSf+HJF46SMCcIgiCuCFdcnHPRdOu1Gnw1d+KBc8VSDZ66KU7anrxRhY2KyQZYBZL0AjISBejlI1cS0aTEoztUWDRD4RQ5/gebv8hEn75FlWo8ykT8lUWBVJMeBZnxSJSPTBdN4S349D/fhVzbQdS2ygcZoqYA1Z+4H1/67s9w379/F/d8ZA1SlWPrUSy/l4Xdg4IZC2s19GnpSDOlIF4+MusE7LB2tqPXYoM/THgKohODXR3o6bTBKx+bT1hr30d74lZ88sufR0XSZQjqtFQkOupw6ngduq0u+SBBEARBzC0x5zk/VevG197y4Gvv+dAtH5sIQRBxsMaDL7zjR9NV6NGK9fzFfvr8+OsvD2D9d5pwZgbpE9Xl2HHXVgy/8RB+/eLb6LAHr8EnlwU3/AM2mZvwxi++hyd/9RrspXfj1s3ZUvhsIQjDqH3mPvzg4RfRdRXa91zi6z2Bt5/ahecbi3HjHRuRMNMJktsDnyYOGnmXIAiCIK4E015zzsXJbRvVKO7yw5GlxLJ4EZ1dATxW40MbC+PhH9+iRvZFL37cGrz0gkoNvqr24XPHAyPxi7p8cGSqsFyK78ejJ/zoYGEhRIMSD24S8NorXrwdGCtOuCf2vsLgvEIc8uFf9/jQESZgRKWAbZVKfChdQALbb+jw44kzfvSEXX8qRI2AO1aosCGZe4VFdPUF8NQxH875WP7SVXhslQJx4wSTaPXhy/t8sLLjokrAzUuU2GpSQBcQUc/u/8tTfvTysCjiz2X+RL0S39uswH42AfqrK3i+Ik2JnywX8OgbXpxi1+DX37lYhZ3pgM4PnG/14YlzASltnIjp0yhw9wol1rPyG2L52utU4haFH5+vCchnTI6YWYAXv6LD4fpk3JTfj+/+JYAv3mlC+8s1+PRf7RDZfUR9Iv7+njJ8vFyPBL8bpw7X41vP9KBVzv+au9fisY1a6Ts6GnDLvzWiXk6fKGrxxW+tweKT5+BYVowNKQE01tTj/zzRhYYwO9Os+Cd89bo+PPXgM2PtUkzCun9+CCXHv4Kn99ulYwlVH8V200k8/+Y5+Cs/i/9zb/Wl9dv8Zzz8k1cwxI4XfOQh3B7/Dg7q12Ftfjwcre/h9d88gwu2YBwefs+aZOm72PUSHnnoeVhG0m/Gpq/+P2TX/hbuyltQYvSh78zzeO53+9Enp1/UlmDjJz6F1cVJGG76K47atmAdnsYPfn9KCueIy/4R/7a9Cz/f9SfJLidCVG3A3Q9uQ9tD/4a3eyY+ZyJEXRk23P4xrCjLhNY/gI6a5/HS84dglcsxUv4jpV80VGL7XXdgSb4JWsGJ/ou78cpvXkTz8Ng0ignb8OlvrEP9D749ozXzYu5H8cUvpGH313+G2knKiCAIgiBmmxl7zguZcDt/0osHjwTgMCnxqYLpXaqACcsLp1j8Y344zSrckx99/AvnfZJ3/f5aphzHIa2FXqjCnckiXjjiw/f49Zkg/rwsJqOhtESF7aoA/me/F/cf8OOkWom7i+X4Fi8e2OvFN076Mez24/E9HnyDbd886sMgC+b3X1mpwnVqEc8c8uK7R9kkJl2Je0P5ixCfM6f5swdw0iGgyjx6fkm6AureAGqZduaTp3J2/duTRDx7yIf/YOlU56txb97o+ZHSt3KRCps1ATz9vhc/bxJQYZ6msNHHY2DPGTxrT8fnSgbwtReHULE5E1UsiKdv+51V+KSuD9//6VHc8/NmDC4uxzevHfVvHn3+GG64/wBu/XOffORSKioMOPRbJvh/0Ql31UL837D4nPTsHKC1fowwDzKEvj4XzGXLkSAEJ59DJ5/Fn986H1yTXPdn/PKH38Yjfz4Ot+MoXvjBt/AI237+m31wSGcHUZdWQH/0F3jq50/jvGYdbr5lNTSyh7f11V346YP345FXzkv7E5G1IBtNz/0YT/9mP7zld2FndZJ0nJdP9vZPY4O5BW89/iO8cMyI0rIr5/vla+UXfPgfUR1/Gq//8vt48levw1V+D66/Jpi+EJPlP5r05275BFbF1eCF//oWHn3kadRpt2DnpkI5NAzbBbT1ZyEjJ8q2EQbPR2JWBvSDVgzIxwiCIAjiSjD9UUumqz2A3f0iGnv9eL5NREHK9ARYTyh+TwDPsfhFxujj+7wiepwiuj3ygTEosDhNQG29D/vY9ZstATzDRKQFAhSy+IlEgkaAzy6i1hZAxyCL/y4T0OeDcQW/gDYW1sLuz7EMBdDK9ltdgiTOBLYdrfHiC+/7cZDfvy+At7rZZCQ5mL9I8TlzmT++HOV4t4gyNjnSymJoKRPPp7v9I+uOK03s+g1eHLDK9dPOJgSpUpBEpPSVGIEzDT68x+LXd/rwdl905T6Cz4nT5wbwbrMXnS19OH7ahg6tCtyXzNP/5i/2Y/0PG/FqnR1nz3fi96d9qCjkzxCCeOzDaO4ZZuU6uae+5UgzfnfejtMnGvHLmgDK80fjc+K0WniGw+V0EEEI4MLrz6It+xP4x/vuw4dv2IyiFJUcysI9VvTy9dpWJ9tzYpCv6Wb7vf32MT8oVLS8izcO16Gr5Sje2nMK6oJSsPmuhN9hgbWvB1bHhAUs0Xfyrzha34LO2hdw4IwXGbl5ckgKiopMaDvwexxvaGL5/ANq2uLksLmHLye68Nsv4YePPo+zDc3ovvg2jpxzITMvXz4jyOT5j5x+nV4Pv7UZje2dsLQcx5v//WU8+mqTHBqOE+5hAXHx0a/aF8VSXPevj+D+7/8MX7o1Ayefe2HMUyGCIAiCmGtmLM6d3lHhY/cCaiWgjFL8csbH16inF38q9GoRjrBfslk6/XikIRD12xbOtfsxlKnCDzaq8cUqJXYy8cqFbLQYTUp8fZMaj35Ig8ev1+Bf8gWpfGaLy81fHRPczhQFqnjt6xWo0AVwsicYxtGrRDjDdKGdfY9jE5Zo60erHI3PJyu8fi8bdp1Q7tIXF+GxB9bh4H9vwrFHNuGRa+OY/UzPlG1On/yN5c/tZ/kbF3+KshQt+/HMg9/As3svwJ+zDR/96v3YUjg977TPNTQyGfI37sHLrx6dlod22DkkfwPc7mGo1CEBm4B4HbMPW/A5jCD4YLONnnslSCi/HXd97Qe478FH8K//8Qg+UZ0MpWps+Uye/8jpbzp+GM6Ke/GFr/4LPvqxj+Kaiiyop7BNboPR04T9j30Hj/3nLvxhvwNV121F6iz1SwRBEAQRDTMW51czrl4/vrnHiz+0ihhUKHDdSjW+XhJdUYns/I8vV0LV4ceu/V58+x0vnmyPrcE90CfidEBAVRqQnC4g1yri2GwI6CuAqEzFVz6bA83Rc/jsg4dwx3cO4d8PTe5hniligNWZMHmdCz4LGt5/Hi/+/Nv4/bE4XLN97bQmcOEIQ3U4efi8tB59Npily8wIUbkEW++8FsqTv8LT/8lE7sPfwUsnbHLoxIzPf6T0e879Gv/z/Z/grSMXMaQuQvUn78cnt2TJoeGwCR2rQlGM/FuHEILghaO3A70dDTh3og6OzNyRJxoEQRAEcSWYsTjXhXkqDWo2YDJxF/SEBSRPq04dHBD5GuQEFeDwjhUuk8eXYafPVNI6fAL07JohzLkqfLkk+mUt3NPmcQZwoNGPp2u8+NFFEUUmAfHj4k94tTgBmSzvBxv8aBgS0TLEymOS235Q+UPAjxN9AirNSiw1KdDYFRgjDPn1dWGOTgP77vaIY+tnCtxM+Ifi8/rn9TtrGA0ojh/Eq69bcKrNifPtDtjEGZvxpDgcQ9AmpkA1vs6FBbj2M/diSWrwOBdzbW1dUCYZpR/njsDizbR+L4/gUo54nU7a48uWdPL3K0JSNkzxLah9uwad0usYOzEcmI4BRE6/oFDCaz2H0++8gFd/swvP7LUgu6x8ZM3+KClISPTCbhuW96eJRgONz4PRZywEQRAEMffMWNWkZyuwJUVAgUmJD2cLaB4IiRUBZ3qZmC1Q41oWXpypwo2ZwNmesd6rjBylFL/QrMCtOQIa5fgjDIuwMtG1OEeBdJ0AM9t0Al8jzcR+fHA/nQtAdr8UvULaN0jvRA/glEVERbEKG3j60hS4c4ECen90yz749devVOPH1SosTmJCO0HAqjQBDhdLknyOBNsZVAtYxtKfaxCQo5WvzdLdxcTthjIliljcynw1dpiCQWOYJP5c54/D66imOwADE+YbUkScZN9HCeA0q79FRWqsMcr1w+r3rPxfaqJJX10/UFGkkuLz+t+cGl26osLqQKMrCbfcbEZVjgHrNy7A3QtGbYeLuZQ0LfLNWlauzLyVamSmx0v7RtU4G5uCnosX4SpcikXjX+IesMCjXYnNt96ABXk5SC9ai53rF8DeXIcxPz+1DcEZX4Cy8kKYMrJgSpLfHhMBUVRBl2KGMZVtelbASj0S09LZfhrio0q/BW2tQ8hZ9SHk6pSIy92BJQXRe44vm4EOWIYLsGTHamRl5KH4mk+iuiT6co+UflHUYPGnfoIv/d2HUJybgdSsRVhUmAzXoOWSd7Iri1egJP4imhpmmP+4OKjd7rHtniAIgiDmGKXZbP62/D1KBJQXKCEwQZdYrMbH8gV4mPB+4pwfNnlV8IBVxFCCArcsUGKziQn3eh9+1SrCI4nHYHxFtx9GJjBvz1fAzb4/cT4wEl8iEGAil00AFqhwa4kS2wsVCHT4UethYnSTGp8vU0mvKhQ0Cqwr4uECtL1+nBwWYOkX4UxS4qZSJbZmChjq9OPxOhGO8OtPAheubWyikJHNJh0s/nV5CqQwwf3rMz50MNE9ghuwxytw/UIlPsTysT4ugL90iewOIpqGBCxlabqxSIFSpYj9/Uyks08ePsIk8fl8aS7zF8LrBBaVK7FgOIBnWNkPysKe57+XXd+TrMQtZQpsTlegt8WHJ5nAGZbOiZy+DhY/MZ2lj9Ubf9XmYZuAMlYuL4XnfzISknHnBjXe/2sv/EvysMzWjhf7kkaONYsunOlWY9OWAvyvbRlYqurDC016rFH347Fj/EeYibjvgdX47g15uKNcBxiScOPWXNy1xQRdbSve6VOjelMuzE3NeKklmJ7sxbm4QdMnxw8SsLRDXHArNi3y4uLpBjjl1xQKggvt9e0wLNyGdVt3onp5IdD0Cp5//j3Y/GHlb+uGI2UV1u28AWs3bEFVYgvePdUpBSUv2oFK1Sm23yXtj6UYO77+Tdy6bStWlaZB0BeiasNWrF6/Euq613HRakDB2i1IaH0Fp9uDojOpfDsWq89I1+c/mO3vtCKt+jZcd/1NuGaBHY2tKTD7a3DgTNgPCzJXYWOxHUfePQunXPeXoMhH1bYi2A7sQbNjknPGIYhd6OhNRNn667H+2muQoz6FEy2ZKFKfjSr/kdLPf3Da02pByrKd2LjtelSvqkKS7SBeee5N9LlH06hIXIrr77kZ+qNP46+n+6VXcE4bXRlWrs3F0MnDaHNewQkOQRAE8TfNjN9zXtjoxo9aZzDgEcQ8gf8n0A2f/gLWmftw4OnvYV/z/LF3UVDBYEyAd7AfObf9GLfiF/jhs7VyKAvn7zm/cwn8bBIMyxt4/KE/oVsWsKLmWtz1wJ0oYJM9hbIb+6b5nvPZIFL6pyJx5Wdxzy1VcB97HM88XwM767NmgiimouquL+H6ZWaozvwKDz6xL+qnUwRBEAQxU2YszouYOP8hiXPiKkcU1UgurUa6fR8udM0Pe+dLY/SpKfznDxDUZqy66wvIPHI/nnx7dOGNqE2BOVleauOzo793cOQ3BaKgQ3J6svyfMX1w9HSPPDm4EkST/qkwlFQja+gU6rocM/OYh8H7O5U+FcY4Byz0L/wJgiCIKwCJc4K4yhDFhbjpga9guV5AgAnvvguv4oVfvYoO7/xor/M9/QRBEARxOUxbnBMEQRAEQRAEMTfM/jvoCIIgCIIgCIKYESTOCYIgCIIgCCJGiFqcGwwG+RtBEARBEARBEHMBec4JgiAIgiAIIkYgcU4QBEEQBEEQMQKJc4IgCIIgCIKIEUicEwRBEARBEESMQOKcIAiCIAiCIGIEEucEQRAEQRAEESOQOCcIgiAIgiCIGIHEOUEQBEEQBEHECCTOCYIgCIIgCCJGIHFOEARBEARBEDECiXOCIAiCIAiCiBFInBMEQRAEQRBEjEDinCAIgiAIgiBiBBLnBEEQBEEQBBEjkDgnCIIgCIIgiBiBxDlBEARBEARBxAgkzgmCIAiCIAgiRiBxThAEQRAEQRAxAolzgiAIgiAIgogRSJwTBEEQBEEQRIxA4pwgCIIgCIIgYgRh+fLlovx9StRqNbxer7xHEARBEARBEMRsQ55zgiAIgiAIgogRyHNOEMRViSAIUCgU0iff5iOiKEpbIBCQPonYI1btjGzn6ueDtj2ysUvZtWuX9HnfffdJnzOFPOcEQVx18IFKpVKNDFzzldDgy/Myn/NxtRLLdka2c3UTC7ZHNjZ3kDgnCOKqgw8YVxtXY57mO/OlTsh2rj5irU7JxmYXKs0YRhQFJOWvxLLyLMTRI6MrCpX9/ECZsgTrP/4lbCwbW0dXoxfnb9EzxR+VJ5Rno7w6EZoYbIfzpU7Iqzl9yPamx9VmY6nr/g4fuXE9MrQfTN0rMzMzvy1/nxKlUimtK4oFRHUeVt7+OXz4Ix/FhnXXoDDFhfa6NgwzQRXriKIWBau2Ii/QiB57pEpXIjGzGBkGF3o7+uGZReMXjYuxYUUabC09GA67rijqUVS9BUsKNBho6YWbhRkK16M6YxgtFod81txiWrQdqyvLUFBYMrKl+NvQafPJZ0yOKGShauMaLEhkNtFtQwDJKFmzEYuzgN62fnijLsO5K/v5Tqy0P03eDfjEZ3ZC1/Q2jp1ugd07en/eX11JRNGMxZsroe9pw0BYOkRdIa5ZtwCaccdnAh/8wvtgUZWIhbdlQ9/dD0dWLlZVq2Gtc46xcVFUInlJDhatyUDB4jRkL1DDcXZoTJuPbRTQF6bCZPDC2ui6pP2K6RlYtVkP+3m71FdNh2jKLxJX2s5mynRsRxRVyN5WgoqVzF4WpSCzwIB4uGHr87L+dfbs5nLqbjaIfP+pbe9yuFK2N5v9TyRm0j9xRFHN7K0IhXoHerrZGB9lGYgaLbJXZ6N4uRk5pQkwxHlh6/YgIMcXNXHIWpmNkhVm5JYmIiHei6EeD/yQwyOkz+v0Ial8J3awtjB4+gQsbulwRLZv3y59vvnmm9LnTJl3nnPu0cy77rO41tSCPU89hN/87k3Yi+/Azdcy9XWVIQh+9J57B+8eqYc9SoOdHfwIKDNgTv5gzKO/7l28d2AfGgZEuNqOsu97cbojypbB8TownGBGCu+72Geq3w5XMCRqPriyj21ipf2J6jJs+fgmuHc/jD+8sh+djsh1xAV05aZqFOqunCdEcDbi4N6DaHROnL7LSlNoHGRRJcce2/cHj4yiNSCrTAnr4SYce6Uex1/vhU0Omg8IgsjS3ohju9kAOtvtMJryu1qJIu8DJxpw/NVmnD8zjPiKbORnz4+JyGwxH21vfH8Sqf+ZU6LMo6bQjKz4ITSfG4568ieKCqStykaGZghN+5pRe3QIyoIsFBaqRsJTlmYjW+9Cy7ss/MgAxNwsFJeopXCJCOnz9Z3Cu8/8GC81FWLnR9YjQTrpyjEPPedJWLjlBqhrfoa9p1mjsbaic0iHdO0A6pr6eIuCGJeHVbd/DrfcejvWr1uJ7Pg+tNb3SN5PUTRh/Rd34ZpEO0pu/Cdcf91mlJmdaDnXOuL5E+OKsO4TX8Ctt96EJYUs78WfwUcWdeHg2V4pPBKiMhE5C5ejsnwhCnMzkaQaxoDVAb9keCokZxcgzuNCSulKlBcXwKTzYLDPBi+b0YU810vLSke8xnkGB5p77MGLM0RFArv+Cnb9chTmZSOZXd/ab5evHwzPKluGykXBcKOGXd86BB+/fupiXFu9DEWZiVAok5BRGLxPfooPnR1WZpwaGHOyIDrcLJ4DLX1OxBnzkanqG/Gci6pk5LP8LVq4QL6+GwN9wfuLuiKsXp0HXUI5KkoMGPamYfHyCqSJfegcdLPqYedESn/AC5/PD316MRJdjey+TvjldhF68pDP7hksv3yp/Kys/Hj+ICQgvUDD7CIJen8LXMYFMHoHoIhnYrs96DmfKv2c5NJNuGbJwmC5mMUxHveI959j+KPWm9cAH9IALIn4dCmw1ADUMdO0hzwCChHbKoF/YNst+UAZ64/OsabBvaVZRSK+mQ4wjYatq4DP6IG3WNjGFcBmNv+pcUXKQ2y0P03Vbbix6CJefvYwhiYo94m9SnqkFxrhbZ8LL9JMrz29eGP64IAaxnItPHUDsMUlIDvZi45G14jnSEKnR1aJEv1H+jHkFuH3iiMDoKgOep5KVpiQW5aEBJ0PQ53uYDs2GFF1swmKhkHYfcHzhfR0rNhigKPODtaSWTuKQwYbIMtWBj1Xeg2LL3uuuDcs97oSpPss6B8MxjcsLcSSPJbG9uBbvxKXF6Eyj4UVZaB8RRrMZhVc3eza8v14+LL17NoVacjOFmGpZ/1AKO2ZGVi9Mwt5BVooWD5M7BzpvPQAeuQyEJUaZLD8la0ys/wlIiHOB1uXe7R8oim/CMwXzzknettRILHICLXFgp4eP9wDTngTU5Cd4EJHR7DuIpWtqNEjb202Spcz2yo3IjVVgLPTCU+A1UsUdTeVbURjWzx95hVZzDbTZdv2w97NbJvbbZT3n8z2OFPbfvDJQ2a8D8lLc1BSZURKgg+DvG2F+qo5s7257OMiM93+SVTqkb/OCN/pDnT0Xyp+RZUBRTvzUZwZQH+Ta7QOFDpkVMXBdqgTvQMBeO0uDOuSkJPolm2A1c/yRDiPs/HJwsOHMaQwoCDdj85meRIQRfoEwYv+VhElN6yD+tQ+tI0bH0W1iM+vBz7FxtQTbcAQi/s36zln2YfV6oK5ZCkMbGYrHTn9HP7yTp1U4HzGlLeDe/ZasfdXP8Lv/nQUqlWfxnUrEqRzQ2SUZqH5Lz/FM78/AO+Cj2P7ikTpOPcMZm35JNay+G8/9VO8XGNEUfhsKwI8fnLRUhQZBlB/4iCOn+2EIrsKZZlMTYWRkJqAwQtHcPxMC3xpFSjL0sohTrTWvC15i/l2qs0pHw8iXb94GQq1FlyoeQ/HTzfBl16FhVlxI+FJhUtRkuhE48mDOHaqCV5TJcpz4qVwWC/g6KH9OHSuiw3UXTh7cB8Ose1wbTubHIRQwt3XBY85A+Od5/z6aSXLkavpxsWTh3DsdCM8psVYkB28v4RSC2/HCbR5M1GQ2I8zjUNIyMkGL+FI6Y+WhFQDBi4cZuXXCj8vv4zw+ysw1D8IY1oWGxRYx2oLIFSD0aTf1vi+VPaHLvbLRy5lyvtPgSgWYcu/PIyv/vu47a5roJjGzDzPBJw9Czx0EmDzH9whO665eF9YBtzEzOl3R4Dvn2CiPAO4NycY3u1iAxkzBe5fMPMDOl7b7Dv77B5rapMQG+3PnMUy1NqATnZ+NASXnSyCSdChgE1+N1bkoLB6EyrZ5CuEaK7EpupCxAdMQe+TuRDVmzZh8+bNqC5kBSTDHxWHjm/aVAnzFPUW7skSRZ10Tx6PbxUm05g0bao0j6RBF5UtBOD3sY013IA3gIBPHHUGpZiw9LZSVG9PQzz7K7ylDKvZ/uqbM5DErs3txLgsB5nqITTtb8WZ9/vhz8xEYVHQ84QhBwaGtEjKGhUA+kw9BCaQBtlNePzExdnISxhG8/5mnD0yBEUha+8F0xOrCrMBmuZOnNnbiX5VIkqWJIy0g6FTLUFv/4kJDLPHglOvN6LmiA1+tw11rzWghm0nDvFJMk8fE1hV2cjVOtD0djPLnxX+7LD8SUxefpfDSJ0XVo7Udbj9mCtHbYDXOWckTpjNcdvUFVZPeI2JbHC2bGc83IPsHfYzIRus22jKNmGhGRmqIVzc04STe7tgVRlRUCaPcRHqLsRUtjEVPH0JldkoMHrR+i5PH7ft9FGvaRT3n8r2orV9AxsTbDWtqH1/gN0/AwX5c2t74/s4qT8Z0//Elo3xejIsSoPJ1Y+WxkmWrCoU0MQJUOqU0pgVQhAdaHypBe3y5IxfS8Xs0x/y4rFRTaEOwBf2wN03zO6uUkrjXZAo68B2Ee3WTKTnTCCX2SEjk3YaNvzLCmvWmHfiXBACuPjmc2jP/Bg+++Uv48brNiA/Obza0lFQlIzmA3/E2eY2dF14FftPupBbXCyHB7Gefg0nGln4+Zdx8KwX6bm5ckgya2RpaH//TzjR1IK243/G6fbpCEc9jEYtBlrOo8c2BHt/Axq7vDAmG+XwIK4eJiwGQ+FuJCQmS8d5R+jzDMPtlrcRYwthYIJTA0vLBfQN2WEfaEVzpwvJqSlyuA4pKfGwtp5BN7u+Y7AV9fWtcEHLDFqEEHDD6XTAwTpbUfTA7bBL+87h8PWEAgRXB3rd6ZcsbeHp6zu3G+/W1KN30AbHQBs6LF4kJoSJL9EJm7Uf1kEvhu29sPVbMaxSy40rUvqjw9XdKJdfPZp7A6z8wsWfCoK1B/bkYmShB71e1UiDjCb9AV+w7Ie9k3QYjKnvPxWtOPjELjz5s3HbSzXT8pr0dgL7BgQ09wl4rYeJ9SQ5gLGYiXU2J8Mxm4AWq4C/tANl7BjH5wAG2RiZxqo1hWWvnhUMD0pllcOFeyRipf3FabXwuKOaTUgIQg9O7alFL7PNpoO78faZNjQ0WpBmTpfPYCk3p8HS2ACnVA/xyC9k5bhnD3YfZIWZv3hkgFu82oyeQ3uwh4WxSzJRog9eIBLpRch31Abjse1Mb++YNO09zSpyGggCm4C/2IquYdZeO7tw+B0mAkI2NNiPs28yYXRgAMyS0bqbfef7e3vZ9IrHFTBw6CKO7mPttI/1Cb2D6O7yw5AaLGtB8MDa5UMSE+RcEHFvZbJZgQHWVnlc7plKTFNi8EIv+vs8cHT1o701gKT00cE9GoT+AbQ0u+C0OtB63gFFqo7PFyVE1v48Dh+8nkuHTMHvw7DNC5eTpS0QgHfQI+0PO1i/JqWPp1eF/joLm0x64OwZRFuzB8kZo0PolOV32TD70fdI9bz7TC/i84tGJnE9p/cGj+8+A0taYdiSpjCbY3FMFVuwGKcuucZl2aDM5eU9ctmq4hQION2wDbB64XX7dj1O1QaVUuS6CzKVbUyNCkksfQMXutHHbJPbdsupQdYK2LjAx8Ao7j+V7UVr+8OtfejtDYZ3dIisbYUccHNje+P7uIn7kxiyMUMS8koU6DnF9AE7nrquDFWVY52YgseGCy814PgblqmXFhkSkZkdgKVp/O/iVDCtK8biytGyDxF9HTjZWCOwMedS+S2w4z9+B/jX99hYepn1N555J845Yv97+OOPHsBz+y6yGfsW3Pa/v4YNeaFK1SE+njU+J5sOybgcTmji9VLDDDHsGq1EDxNiKlUofgK0rLN02oMrMwXBBxsTkdGjgprN2Dy+0dVLPtbQFRr1mPvzYyGkcHWw44gMm/kplTBX7sCGa7dL24p8AwSFUo6vhlrDOhzv6P3dPedxrnVgTMcXGRe6e9wwmS8VzRoja0SrN2G9fP8lWUz4C2O9BpMTKf3R4fWN1q+fTX0VY+7PZs1iN9q6BmBp64SL3S8855eX/iBT339y+GMyR18n+rrHbYPD8hnR4QybN7hYVWvCbs/GRaxaAvxsqyht9xexEmHHJK8TM/te1k+Z2DiiZNqWaXxksP1UD9AVjB6RWGh/07PlSejuYeLIPDIYmfXNaOiWw5j9N58KCnW+brPREg+9gR3W69n0O17yTHGP0pYKE+KlgCiwO+BKWzTGOzUeoec09h5slCcIM0fw++HmAoQJDJY7+IZkAWLzj0wC1ekmLNhRjJW3lkpe9fIi/s7k0fsOdTjhMyUgidsWy2OyYRjWzlC/ooCa6Xifd1S8eN1+KNUKVpbRt+OAZ1QQBSz9aDhjwzR+XTIFCpYWAWlr5CcGbKsqj2P9zPTSN3OY/YSMidsZsxpmOhLc+yjZzpYKaWI8yqjN8ThcZPV0y+0k/BqT2OBs2U5kIpetrdXO+oYMLN2Wi5KVJmRkaaLyeoczc9tQSrbpDxPWnrZeNNRFv6Z5aqKz/fBwP9MDbIiLAWLDxvgP1VOrUqHv7kNr90QToFH4RMnrn/x+okqL/LUmaJq70GaRD47gYxOMJtTWTvdXZxMwSZ49HgH98lK82WReinOO4OtD8+GX8Mrj38OfauKweuvqWXvl3ay03znFi94LB3D0SHA7cng/Dp/rnqWOZxRXTyfcaVkIc8qye5hQVJkLRc8Z1BwN3v88E/HTY67Tz/8xgg/W5pOo52s12HVDV56d9M+c2VrWEoljZ4Hvvi9vbFb/QC0b4Hj5MlHfy/rCVFaprF9GL9PQJiOQzL6P6NIo+MDbXyAgiYHLgXuaGpr1kkdIX1QIfU/3hIMOX44SElZBLDize3fQo8S2aD3ewR9n7cUpLJYGvPAlNVcaUdAj75okCK1dOPtW0Kte3xr+cyiGZQgDAR2STUyMZBqg62P7o3OuWUdwu9HXPDytN1ZMjR/9R+UnBnx7oxEnjtpZvc/W9aeP9PaMRZDsZ/fug2iesWaYmQ1eDmOdJ1OXbaCrGydfa0NzsxMepRYZ1XlYUDbWKzodZt82iMjMpY1pYUwX0Vs3eFlPDERBjcy12Uhz9eJsjWPCp8+C1w9/4HLshs2qWHQxMK5/nGPmnTgXhVKsveduLE4JdhTcE9nR3g1lohFB/5UTLpcKWt3oOtV4vQ4elyNK8eeCe1iANj74CIOvZYqf4HHG5LBZnlcBjWp0mqxSqxDwjH0NFT8WQgpns8Po0scMza+CEHAGl6Owjf9IZlSnBO+vDru+NqMclfnGsZ2rvF54Slyd6HWnITUxzCjjDNArh9Dd2gO7wwGHww5vYDougUjpnyUmy95lp/9ymZ1lLVPhZuJbyaqs3SFIm4UJKlXYpXuZIChOAQYcQBfbcth3D/uMppOMlfbnZPUWl2CE6jInBI5uNuCYi1BkxqgHSSIe5nRZkevTYY63sHD2ndsM0qb9iDccZ+NBHGxyMsF/6TWmt6bzMtBpEK92o7/ODgf3sA964Bs/gAUcGGDFk5wZj6QMLewdoR+1S4HwsjmtSj3acNVxSvi9bNIknRMAf7gU6uekNaEs3OuZ5QGO3WrikuJrSVm7lpcw8I17uD7w328a9IhnbUF6FiTZlXR0ekxig3NlO7zu1FolfL6QhzNy2YpsfBHtLvRf7EfLwVacO+9DYoZurANi0rqLRCTbCtqmMuxxYly+GaULdePGwJnff2rbvwq4AjYmCipkblqIaz66QNpKsyYuO1HJ9MEEekXyvlfnIkdpxbn3BuBhdjCKn2kqBbMLeZeh0rL68ossZLokw5DohdN+5Zx4nNmWRHNPwAJP3HJsuGknSnKyYC6oxtY1pXC01sMqndCNpoYB5K+9HQvzc5BRthPrq+LRcrFeCo1MHxMbdmQv34FsnRJx2VtQWTAdQ3TA2j+M5LwFMCcmwJBShMIMNazWYOpC8DeRZCaFwrUYsg3IIZGwo69vGKl55ez6TGgm8V/Er0GpKeSVcKCf3d+Yuwjp/PrJeSgpyoba7x4rjjzD8KqSkZqaBJ1Oz8bqS0ctQRhGd88wkpLCGqibNVp/IjILMpCgT4AxaxFyU6dTPpHSzzpVtQ5aJsh43yeotIiL00LDGuisECH9/AeNKnY/fk8t7/zZzFzD0sL3VYrL75Bma1nLVJyyAIsKgeokETnJIu5ZDdwpL63mgwdfW15mZGKUe8v591TAwr5HRYy0v976i3DlV2HhNDQy95T3WIKPakM/xJOWrDjSkOZgn2NeN+aCQx/0cG+pLoCj9hR6WNlJ6zoPNQP5q6UwvoWuxQV96DEw38YvXwktZ+Db6nwHGhscE6bpiuD0wOnVIq0iAfpEDRIL05Ex7vbcVgY6nFCZUmFO82CgM9xt7oWt14ekMhNSUjXQZ6QgO1eBwa6gIfFXkdq6PEgoNiE1RQNDdgqyMgMs3COFR4ILLqVOBY1eBbWGdQQKFZtXs7bI9se0Q5cXPtY2kzNZe01Us34jVIdeNrHwwrjALKVPa0pE4aZ85If9wDUa+DKFqnwRt+WI0M6G6O1uQDPyUb2F2cliPRwz8JxPbYOzh0LDyt/AbCPfhJxsEdaOUB81ddlKr7lbW4pl641ITFYjLkmHVBMT96yuxgijSetuaiLblheDzDaNZWbp9006czLyKhKh8o97T/sk949se1Pb/mwxE9ubrf5k7m3MiVb+xO71xpGtpfvSPIrqBJTdUIqV21LHTAi4jSUuyUVxigvNx23waYP1o2GTyOAEzIPBHhFpLM1GXkfpySgojsNQ18Te9alQFi5FsbYBLU2XLr/hdbRtqYhvLRGRHGUdRcu8e5UiF4ydDR3QlW3Cmk3bsWJJPtDyGl7+yyEM+fngKWKwuR6+3LVYt2UHli40YvDIM3htf5v8j2T0yKveiIS211DbEcxPYtlmVKjP4v0zXVJ8a6cVaatuxtYd12NlmQPNbUaY/SejepUiv8XwoBV+Qx4KCwuRnRYPV0ctLrTaZK9T8FWKQl87NLmVKM5Khr/vPM439rMmf6nRaPhrDJV9aO4NrrsduX5CLoqKipFtToCv5yzONfezjo/nPxjuM2ShoKiIhRvg7T4nhY951R8TqV5tJvLYNfJyC5ChHpRflchfpZgLlbUeFpcA37AKpjwT1PYuKVxg4t/mUCMttxj5OdlIUvSi02ZAikJ+1aLaiOwsDfqbu4HUQiR5WtDtTh45Nhwh/Zy0hZuwvLwARtZZqhOzkMvSl+QN/RMi+VWUtoaRf+IUl5KPDIUleH/pVYrJcLe1YjC0Tk2fgYJkDxN9vAycU6cfSSi5Zh0WFbC6S4ln2jwZGez+OTkZUPQ3oX9YPfX9rwALcgHjIHBwKJi/1DTgGjYuvtLD61+AhalkbxJwUwmwmYlyO6uKpxp4dxg8X2EAdjJBvq8OaGPxdrImVN/ERD2vnAjESvsL9HciUHYTNizwoL62Ca5xXt/JXnHn6GlCUxPbekbrSm9m7bHnNHpG3pUefB2Z4/T7OF4XPH80jJWBdwDt/BqhjV1LEBzoCT/GtvYB1qKl4+3Sa80ER09YeM/ID5zC0ySd0z4w6eP7affBcfHIKFHDfs4GZ5hnSWC9jX1IBWNJKnL4P+hQOpjdxCGZfYZeR8cJOBVIqEpGknMITbUO+OR08Q+3xQV/SjJyF6UiPVON4SY2Mbsw+jo9j5X1MUksvJKJ+wwlHOdZH9I0+k9C4jKNSFWw+8mv5xuLFvk7C1DK/wlOhhoCy4epNIXlJQFClxWDoVeaDXvgZZPsrIpUZJelwKR1SekPpS+QmoRcFpaRHQdvRw8azrI0h/eDkVADd69gGmUIeNN6abyJ7Cy8zsfv88n5QLtc3+1MSLWHjk8eZ8L9iWxw1mwn+CrF9EJe3slIYRP5oXOdaG4KittIZcvb8HC/B3G5zLbkf2KkddnQeHwA7vC1w5PUHWdq25jatkLp8xsTkc1sk6fP096LxrPOsXU/6f2ntj0bm1BNbfvB8tNY+9En+9w0GUaYxrWtiMzA9jhj+pMxthc7NsajB9x+aa1+aNPkpCLRPYDunrApnIKNt4UJiBvmaRse6X9Y7pG2OA3GJC1Silk9sfrhW0ZWAP0Xnew8NvfqZZOltGTklKcgPZfZaFs3Gyum1/4ViVXYceeN0NX8Fm/UWsdO7jgq4JYKZjFsjH1tIBg2W69SFJYvXx6V3Fer1fB6p2FY8xz+yEWfpIfPNoCsm/8DN+Ip/Nfz5+TQKwOfwaeWb8YC/3G8VzfW804QVzPRtD/+n0rX3P33WGPuw8Hf/gAHWkc7TpVKxQaAyJ2wtAZ4MZuYvB96Swtvd2Ys3lwIx6H3P5h/3jEJ3Evj84X9EpiYcxQmEQ8vBV7dxya/E0xeo7WzDxqynfnHfLO9q83GEpZ9CnfcUAlPzdP448sn4QhzboQQU1gdsQnUm6yOXpbraNeuXdLnfffdJ33OlPm3rOUKwP+JQHySEWpBA52pAkW5OvRbpvNzuZkjCkpo4rSI0xqQlL4AhSY/LL2DcihBXP1E2/4Ebwve++W38PizB9A9brUEHyimYuSd4/x1YaG3F8Q4kfJEzD65yYBmADgwyfKT+VInZDvzj/lme1ebjYmDZ7Dnf76Fp/8ysTDnZLE60tmA92awPC0S5DmfAFEsw877v4ilegEBnwP9F1/HK797E53y4565RNTkY8XahUiACL97CJaWM6hru7xfNBPEfGI22h/3KHHP0tUE90qRyLpy8LLevhqo7AAebp/Y9uaLnZHtzC/mo+39rdkYz+uG5cC6fmBX82gdzZbnnMQ5QRBXJXzwUigU0iff5iN8AOAbX8v5tzTwzSdi1c7Idq5+PmjbIxu7FBLnBEEQBEEQBHGVQWvOCYIgCIIgCCJGECoqKqLynBsMBtjtl/4bbYIgCIIgCIIgZgfynBMEQRAEQRBEjEDinCAIgiAIgiBiBBLnBEEQBEEQBBEjkDgnCIIgCIIgiBiBxDlBEARBEARBxAgkzgmCIAiCIAgiRiBxThAEQRAEQRAxAolzgiAIgiAIgogRSJwTBEEQBEEQRIxA4pwgCIIgCIIgYgQS5wRBEARBEAQRI5A4JwiCIAiCIIgYgcQ5QRAEQRAEQcQIJM4JgiAIgiAIIkYgcU4QBEEQBEEQMQKJc4IgCIIgCIKICYD/DxbAmIVcy+qMAAAAAElFTkSuQmCC;" vertex="1" parent="1">
          <mxGeometry x="210" y="460" width="743" height="82" as="geometry" />
        </mxCell>
        <mxCell id="Q4NVvnGR27nj_l2IsHml-18" style="edgeStyle=orthogonalEdgeStyle;rounded=0;orthogonalLoop=1;jettySize=auto;html=1;entryX=0.5;entryY=1;entryDx=0;entryDy=0;strokeColor=#3333FF;strokeWidth=4;" edge="1" parent="1" source="Q4NVvnGR27nj_l2IsHml-17" target="Q4NVvnGR27nj_l2IsHml-13">
          <mxGeometry relative="1" as="geometry">
            <Array as="points">
              <mxPoint x="625" y="440" />
              <mxPoint x="450" y="440" />
            </Array>
          </mxGeometry>
        </mxCell>
        <mxCell id="Q4NVvnGR27nj_l2IsHml-17" value="" style="rounded=0;whiteSpace=wrap;html=1;fillColor=none;strokeWidth=6;strokeColor=#3333FF;" vertex="1" parent="1">
          <mxGeometry x="580" y="500" width="90" height="30" as="geometry" />
        </mxCell>
      </root>
    </mxGraphModel>
  </diagram>
</mxfile>
